<?xml version="1.0" encoding="UTF-8"?>
<svg width="60px" height="60px" viewBox="0 0 60 60" version="1.1" xmlns="http://www.w3.org/2000/svg" xmlns:xlink="http://www.w3.org/1999/xlink">
    <defs>
        <circle id="path-user" cx="30" cy="30" r="30"></circle>
    </defs>
    <g id="icon__avatar" stroke="none" stroke-width="1" fill="none" fill-rule="evenodd">
        <g id="icon--user">
            <mask id="mask-user" fill="white">
                <use xlink:href="#path-user"></use>
            </mask>
            <use id="oval-user" fill-opacity="0.23" fill="#01991B" xlink:href="#path-user"></use>
            <path d="M55.9010504,50.7036707 C54.2511395,48.1455829 48.7118702,46.5560424 43.2183847,44.2854307 C37.7322472,42.0114501 36.428258,41.2253828 36.428258,41.2253828 L36.3790828,35.9969119 C36.3790828,35.9969119 38.4353953,34.4247772 39.0712808,29.5051185 C40.360574,29.8734472 41.7063903,27.5994666 41.7843922,26.3995909 C41.8550462,25.2451949 41.6040834,22.0408474 40.0389572,22.3636965 C40.3566173,19.9493468 40.590058,17.7809238 40.480403,16.6332655 C40.067784,12.4317355 35.905984,8 29.5013452,8 C23.0967064,8 18.9315151,12.4322969 18.5251136,16.632704 C18.4120673,17.7803624 18.6455079,19.9487853 18.9631681,22.363135 C17.3946505,22.040286 17.1470791,25.2440719 17.217733,26.3990294 C17.2917783,27.5994666 18.6381599,29.8734472 19.9274531,29.504557 C20.5633386,34.4247772 22.6230424,35.9963504 22.6230424,35.9963504 L22.5699106,41.2248213 C22.5699106,41.2248213 21.2664867,42.0142575 15.7797839,44.2848692 C10.290255,46.5554809 4.74702912,48.1450214 3.0971182,50.7031092 C1.61790721,52.9916881 2.06274444,64 2.06274444,64 L56.9359894,64 C56.9365546,64 57.3847833,52.9916881 55.9010504,50.7036707 Z" id="shape-user" fill="#01991B" fill-rule="nonzero" style="mix-blend-mode: multiply;" mask="url(#mask-user)"></path>
        </g>
        <g id="icon--check" transform="translate(41.000000, 1.000000)">
            <circle id="oval-check" fill="#01991B" cx="8.5" cy="8.5" r="8.5"></circle>
            <polygon id="shape-check" fill="#FFFFFF" fill-rule="nonzero" points="12.2007513 5.09763632 7.60638129 9.87024446 4.78353222 7.04611769 2.90298151 8.9279461 6.66536062 12.6933065 7.60638129 13.6343272 14.0640532 6.99863011 14.0640532 6.96093818"></polygon>
        </g>
    </g>
</svg>