<?xml version="1.0" encoding="UTF-8"?>
<svg width="60px" height="60px" viewBox="0 0 60 60" version="1.1" xmlns="http://www.w3.org/2000/svg" xmlns:xlink="http://www.w3.org/1999/xlink">
    <defs></defs>
    <g id="icon__facebook-circle" class="icon icon--facebook" stroke="none" stroke-width="1" fill="none" fill-rule="evenodd">
        <circle class="circle" id="Oval-4" fill="#F6704D" cx="30" cy="30" r="30"></circle>
        <path d="M32.8281629,22.6512439 L39.5631068,22.6512439 L38.7769266,30.09375 L32.8281629,30.09375 L32.8281629,51.6875 L23.8919144,51.6875 L23.8919144,30.09375 L19.4368932,30.09375 L19.4368932,22.6512439 L23.8919144,22.6512439 L23.8919144,18.1700167 C23.8919144,14.9903386 24.6431458,12.5837776 26.1456311,10.9502617 C27.6481163,9.31674573 30.1201916,8.5 33.5619311,8.5 L39.5106948,8.5 L39.5106948,15.9425061 L35.7894417,15.9425061 C35.1080822,15.9425061 34.5621291,15.9992852 34.1515663,16.1128451 C33.7410035,16.226405 33.444005,16.4316834 33.260562,16.7286863 C33.0771191,17.0256892 32.9591932,17.3270553 32.9067809,17.6327935 C32.8543687,17.9385318 32.8281629,18.3709266 32.8281629,18.9299909 L32.8281629,22.6512439 Z" id="facebook" fill="#FFFFFF"></path>
    </g>
</svg>