<?xml version="1.0" encoding="UTF-8"?>
<svg width="394px" height="78px" viewBox="0 0 394 78" version="1.1" xmlns="http://www.w3.org/2000/svg" xmlns:xlink="http://www.w3.org/1999/xlink">
    <!-- Generator: Sketch 50.2 (55047) - http://www.bohemiancoding.com/sketch -->
    <title>icons__social</title>
    <desc>Created with Sketch.</desc>
    <defs></defs>
    <g id="icons__social" stroke="none" stroke-width="1" fill="none" fill-rule="evenodd">
        <g id="facebook" transform="translate(0.000000, 2.000000)" fill="#373E4B" fill-rule="nonzero">
            <path d="M74,4.07991071 L74,69.9035714 C74,72.1665179 72.1665179,73.9834821 69.9200893,73.9834821 L51.0566964,73.9834821 L51.0566964,45.3415179 L60.6700893,45.3415179 L62.1071429,34.1754464 L51.0401786,34.1754464 L51.0401786,27.0397321 C51.0401786,23.8022321 51.9321429,21.6053571 56.5736607,21.6053571 L62.4870536,21.6053571 L62.4870536,11.6120536 C61.4629464,11.4799107 57.9611607,11.1660714 53.8647321,11.1660714 C45.3415179,11.1660714 39.4941964,16.3691964 39.4941964,25.9330357 L39.4941964,34.1754464 L29.8477679,34.1754464 L29.8477679,45.3415179 L39.4941964,45.3415179 L39.4941964,74 L4.07991071,74 C1.83348214,74 0,72.1665179 0,69.9200893 L0,4.07991071 C0,1.83348214 1.83348214,0 4.07991071,0 L69.9035714,0 C72.1665179,0 74,1.83348214 74,4.07991071 Z" id="Shape"></path>
        </g>
        <g id="twitter" transform="translate(148.000000, 0.000000)" fill="#373E4B" fill-rule="nonzero">
            <path d="M85.2350009,19.1897739 C85.2953039,20.0319212 85.2953039,20.8742536 85.2953039,21.7164009 C85.2953039,47.4030041 65.7046317,77 29.8985836,77 C18.8674077,77 8.61998484,73.81158 0,68.2774428 C1.56732058,68.4577972 3.07415263,68.517977 4.70177618,68.517977 C13.8038137,68.517977 22.1827722,65.4501018 28.8738042,60.2164935 C20.3141223,60.035954 13.1408521,54.4414518 10.6693581,46.7413963 C11.8750464,46.9217506 13.0805491,47.0421102 14.3465404,47.0421102 C16.0945844,47.0421102 17.8428138,46.8013909 19.4702518,46.3805025 C10.5489377,44.5756631 3.85772015,36.755433 3.85772015,27.3109031 L3.85772015,27.0703689 C6.44963457,28.5141293 9.46385533,29.4164564 12.6584284,29.5366309 C7.41411099,26.047497 3.97832609,20.092101 3.97832609,13.3545524 C3.97832609,9.74524393 4.94261696,6.43664946 6.63054348,3.54912862 C16.2150047,15.3397461 30.6218481,23.0396165 46.7765499,23.8819489 C46.4752206,22.4381885 46.2943117,20.9344334 46.2943117,19.4304932 C46.2943117,8.72255716 54.9745995,0 65.7645635,0 C71.3705132,0 76.4339216,2.34608753 79.990498,6.13593547 C84.3907593,5.29378819 88.6102973,3.66948829 92.3477826,1.44376042 C90.9008824,5.95558115 87.8267298,9.7454291 83.7881007,12.1515113 C87.7063094,11.7306228 91.5039121,10.647571 95,9.14381597 C92.3481537,12.9936586 89.0326036,16.4224275 85.2350009,19.1897739 Z" id="Shape"></path>
        </g>
        <g id="github" transform="translate(314.000000, 0.000000)" fill="#373E4B" fill-rule="nonzero">
            <path d="M26.7580645,62.8054859 C26.7580645,63.1280616 26.3870968,63.3861222 25.9193548,63.3861222 C25.3870968,63.4345085 25.016129,63.176448 25.016129,62.8054859 C25.016129,62.4829102 25.3870968,62.2248497 25.8548387,62.2248497 C26.3387097,62.1764633 26.7580645,62.4345239 26.7580645,62.8054859 Z M21.7419355,62.0796906 C21.6290323,62.4022663 21.9516129,62.7732284 22.4354839,62.8700011 C22.8548387,63.0312889 23.3387097,62.8700011 23.4354839,62.5474254 C23.5322581,62.2248497 23.2258065,61.8538877 22.7419355,61.7087286 C22.3225806,61.5958271 21.8548387,61.757115 21.7419355,62.0796906 Z M28.8709677,61.8055013 C28.4032258,61.9184028 28.0806452,62.2248497 28.1290323,62.5958117 C28.1774194,62.9183874 28.5967742,63.1280616 29.0806452,63.0151601 C29.5483871,62.9022586 29.8709677,62.5958117 29.8225806,62.2732361 C29.7741935,61.9667892 29.3387097,61.757115 28.8709677,61.8055013 Z M39.483871,0 C17.1129032,0 0,16.9836098 0,39.3542336 C0,57.2410554 11.2580645,72.5472716 27.3387097,77.9342856 C29.4032258,78.3052476 30.1290323,77.0310737 30.1290323,75.9827027 C30.1290323,74.9827181 30.0806452,69.4666738 30.0806452,66.0796291 C30.0806452,66.0796291 18.7903226,68.4989468 16.4193548,61.2732514 C16.4193548,61.2732514 14.5806452,56.5797752 11.9354839,55.3701164 C11.9354839,55.3701164 8.24193548,52.8378973 12.1935484,52.8862836 C12.1935484,52.8862836 16.2096774,53.2088593 18.4193548,57.04751 C21.9516129,63.2732207 27.8709677,61.4829256 30.1774194,60.4184259 C30.5483871,57.8378204 31.5967742,56.0475253 32.7580645,54.9830256 C23.7419355,53.9830409 14.6451613,52.6766094 14.6451613,37.160719 C14.6451613,32.7253033 15.8709677,30.499531 18.4516129,27.660865 C18.0322581,26.612494 16.6612903,22.2899799 18.8709677,16.7094205 C22.2419355,15.6610495 30,21.0641923 30,21.0641923 C33.2258065,20.1609803 36.6935484,19.6932456 40.1290323,19.6932456 C43.5645161,19.6932456 47.0322581,20.1609803 50.2580645,21.0641923 C50.2580645,21.0641923 58.016129,15.6449207 61.3870968,16.7094205 C63.5967742,22.3061086 62.2258065,26.612494 61.8064516,27.660865 C64.3870968,30.5156598 65.9677419,32.7414321 65.9677419,37.160719 C65.9677419,52.7249958 56.4677419,53.9669122 47.4516129,54.9830256 C48.9354839,56.2571995 50.1935484,58.6765172 50.1935484,62.4667815 C50.1935484,67.9021818 50.1451613,74.6278848 50.1451613,75.9504451 C50.1451613,76.9988161 50.8870968,78.27299 52.9354839,77.902028 C69.0645161,72.5472716 80,57.2410554 80,39.3542336 C80,16.9836098 61.8548387,0 39.483871,0 Z M15.6774194,55.6281769 C15.4677419,55.7894648 15.516129,56.1604268 15.7903226,56.4668737 C16.0483871,56.7249343 16.4193548,56.8378358 16.6290323,56.6281616 C16.8387097,56.4668737 16.7903226,56.0959117 16.516129,55.7894648 C16.2580645,55.5314042 15.8870968,55.4185027 15.6774194,55.6281769 Z M13.9354839,54.3217454 C13.8225806,54.5314196 13.983871,54.7894802 14.3064516,54.950768 C14.5645161,55.1120558 14.8870968,55.0636695 15,54.8378665 C15.1129032,54.6281923 14.9516129,54.3701318 14.6290323,54.2088439 C14.3064516,54.1120712 14.0483871,54.1604576 13.9354839,54.3217454 Z M19.1612903,60.0635926 C18.9032258,60.2732668 19,60.7571303 19.3709677,61.0635772 C19.7419355,61.4345393 20.2096774,61.4829256 20.4193548,61.2248651 C20.6290323,61.0151909 20.5322581,60.5313274 20.2096774,60.2248805 C19.8548387,59.8539184 19.3709677,59.8055321 19.1612903,60.0635926 Z M17.3225806,57.6926613 C17.0645161,57.8539492 17.0645161,58.2732976 17.3225806,58.6442596 C17.5806452,59.0152216 18.016129,59.1765095 18.2258065,59.0152216 C18.483871,58.8055474 18.483871,58.386199 18.2258065,58.015237 C18,57.644275 17.5806452,57.4829871 17.3225806,57.6926613 Z" id="Shape"></path>
        </g>
    </g>
</svg>