<svg width="191" height="65" viewBox="0 0 191 65" xmlns="http://www.w3.org/2000/svg" xmlns:xlink="http://www.w3.org/1999/xlink"><title>Group 11</title><defs><path id="a" d="M55.479 17.281V0H0v17.281h55.479z"/><path id="c" d="M55.479 5.902v5.902H0V0h55.479z"/></defs><g fill="none" fill-rule="evenodd"><path d="M56.891 2.635S56.891 0 53.976 0H5.43S1.412 0 1.412 3.632v4.54s0 3.632 4.018 3.632h1.742l47.122-5.436c.744-.109 2.597-.532 2.597-2.635V2.635z" fill="#F6704D"/><g transform="translate(0 24.512)"><mask id="b" fill="#fff"><use xlink:href="#a"/></mask><path d="M55.48 8.113c0-.053-.004-.06-.004-.07a2.715 2.715 0 0 0-.03-.259c-.09-.984-.604-1.56-1.187-1.888-.127-.07-.217-.119-.31-.158-.044-.02-.094-.035-.142-.053a4.165 4.165 0 0 0-.93-.227L5.76 0H4.018C0 0 0 3.632 0 3.632v10.017s0 3.632 4.018 3.632H5.76l47.121-5.435c.228-.05.569-.118.926-.25.048-.017.098-.033.143-.053.092-.039.182-.088.273-.138.619-.348 1.133-.924 1.224-1.908.018-.114.026-.203.03-.259l.002-1.125z" fill="#488ED8" mask="url(#b)"/></g><g transform="translate(1.647 52.292)"><mask id="d" fill="#fff"><use xlink:href="#c"/></mask><path d="M0 8.07V9.17s0 2.635 2.915 2.635h48.546s4.018 0 4.018-3.632v-4.54S55.48 0 51.461 0H49.72L2.598 5.436l.005.023C1.853 5.544 0 5.969 0 8.07" fill="#F6704D" mask="url(#d)"/></g><path d="M7.295 17.684c0-.052.003-.06.003-.07.003-.056.012-.144.03-.258.09-.985.604-1.56 1.187-1.888.128-.07.217-.12.31-.159.045-.02.094-.035.142-.053.357-.131.698-.2.931-.226L57.015 9.57h1.741c4.018 0 4.018 3.632 4.018 3.632v10.018s0 3.632-4.018 3.632h-1.741L9.893 21.417c-.228-.05-.569-.117-.926-.25-.048-.017-.097-.033-.143-.053-.092-.039-.181-.088-.273-.138-.619-.348-1.133-.923-1.223-1.907a2.735 2.735 0 0 1-.03-.26l-.003-1.125z" fill="#FFF"/><path d="M62.25 41.61s-.354-2.885-3.838-2.457l-16.237 1.993-15.625 1.919-16.238 1.994c-3.484.427-3.13 3.313-3.13 3.313l.311 2.528c.283 2.303 2.554 2.495 3.462 2.48l-.003.025 16.768-2.059 15.322-1.881 16.769-2.059-.01-.025c.885-.204 3.042-.94 2.76-3.242l-.311-2.528z" fill="#373E4B"/><g opacity=".8" fill="#373E4B"><path d="M128.929 27.296h-.08V16.158c0-.96-.522-1.543-1.364-1.543-.882 0-1.404.584-1.404 1.543v26.615c0 .96.522 1.543 1.404 1.543.842 0 1.364-.584 1.364-1.543v-8.719c0-4.755 2.606-7.759 6.697-7.759 4.01 0 6.136 2.378 6.136 6.925v9.553c0 .96.522 1.543 1.404 1.543.882 0 1.364-.584 1.364-1.543V32.97c0-6.007-2.888-9.261-8.302-9.261-3.289 0-5.775 1.335-7.22 3.587zM190.72 34.138c0-6.258-3.93-10.43-9.706-10.43-3.449 0-6.136 1.377-7.66 3.755h-.08v-1.96c0-1.002-.521-1.544-1.404-1.544-.882 0-1.363.542-1.363 1.544v25.029c0 .96.48 1.544 1.363 1.544s1.404-.585 1.404-1.544v-9.72h.08c1.524 2.378 4.211 3.755 7.66 3.755 5.776 0 9.706-4.172 9.706-10.43m-2.808 0c0 4.673-3.007 7.843-7.339 7.843-4.291 0-7.299-3.17-7.299-7.842 0-4.63 3.008-7.843 7.3-7.843 4.33 0 7.338 3.17 7.338 7.843M99.507 41.964h-.441c-1.685 0-2.487-.96-2.487-3.087v-6.072c0-1.001-.521-1.543-1.403-1.543-.843 0-1.364.542-1.364 1.543v6.155c0 3.63 1.845 5.59 4.973 5.59h.722c.842 0 1.364-.5 1.364-1.293 0-.793-.522-1.293-1.364-1.293zM96.546 26.092v-6.55c0-1-.521-1.543-1.403-1.543-.843 0-1.364.542-1.364 1.544v8.21l2.767-1.661z"/><path d="M101.303 23.82l-3.852 1.325-3.053 1.05-2.884.992c-.92.317-1.26 1.001-1.006 1.831.266.87.922 1.211 1.841.895l9.79-3.368c.88-.303 1.26-1.001.993-1.87-.254-.83-.947-1.16-1.829-.856zM147.236 34.03c0 6.183 4.146 10.445 10.144 10.445 6.038 0 10.184-4.262 10.184-10.446 0-6.225-4.146-10.445-10.184-10.445-5.998 0-10.144 4.22-10.144 10.445zm2.818 0c0-4.68 2.978-7.855 7.326-7.855 4.387 0 7.366 3.175 7.366 7.854 0 4.68-2.979 7.855-7.366 7.855-4.348 0-7.326-3.175-7.326-7.855zM122.319 39.92c0-.793-.523-1.336-1.288-1.336-.403 0-.765.167-.966.417-1.41 1.88-3.422 2.883-5.958 2.883-4.347 0-7.326-3.175-7.326-7.855 0-4.68 2.979-7.854 7.326-7.854 2.254 0 4.187.877 5.515 2.34.322.334.644.542 1.087.542.765 0 1.288-.543 1.288-1.378 0-.335-.08-.627-.322-.92-1.973-2.13-4.549-3.175-7.568-3.175-5.998 0-10.144 4.22-10.144 10.445 0 6.184 4.146 10.446 10.144 10.446 3.382 0 6.2-1.337 7.97-3.76.161-.251.242-.502.242-.794z"/></g></g></svg>