<?xml version="1.0" encoding="UTF-8"?>
<svg width="225px" height="115px" viewBox="0 0 225 115" version="1.1" xmlns="http://www.w3.org/2000/svg" xmlns:xlink="http://www.w3.org/1999/xlink" preserveAspectRatio="none">
    <!-- Generator: Sketch 50.2 (55047) - http://www.bohemiancoding.com/sketch -->
    <title>arrow__01</title>
    <desc>Created with Sketch.</desc>
    <defs></defs>
    <g id="Designs" stroke="none" stroke-width="1" fill="none" fill-rule="evenodd">
        <g id="Mood-Collage" transform="translate(-157.000000, -13901.000000)" fill="#FFD138">
            <g id="arrow__01" transform="translate(157.000000, 13901.000000)">
                <path d="M207.722276,58.3261873 C202.714921,59.6864453 205.269263,53.9004475 205.397332,52.8622822 C205.699913,50.4181124 205.870671,47.9468681 206.038615,45.4989639 C206.382478,40.5097954 206.42892,35.4972867 206.374503,30.5062509 C206.317271,25.255207 206.926653,19.9976279 206.924308,14.7428496 C206.92337,12.4657945 206.973565,10.159331 206.732439,7.891612 C206.596395,6.6149114 204.999521,2.24798849 206.64143,1.30084936 C210.377478,-0.855304243 209.716961,9.23319794 209.753083,10.750301 C209.886782,16.3724517 209.389518,22.0501517 209.070518,27.6681012 C208.768407,32.9947668 209.035803,38.3153641 209.061136,43.6350277 C209.07474,46.3616121 208.478962,49.0956653 208.370126,51.8245836 C208.288031,53.8775742 209.158712,56.4403115 207.722276,58.3261873" id="path"></path>
                <path d="M18.1035056,31.0730667 C18.1035056,40.0776571 18.3662111,49.0803803 18.1766878,58.0672322 C18.1396276,59.8238042 18.7846634,63.9055117 17.9379073,66.688579 C17.8079619,67.1171023 18.3652728,67.5096819 19.1097615,67.5096819 L19.8364237,67.5096819 C20.7150798,67.5096819 21.4201626,67.091895 21.4239155,66.5779472 C21.4483096,62.7935918 20.6503416,58.8771318 20.6888092,55.0932433 C20.7845091,45.7464879 21.1386924,36.2989034 20.4589419,26.9624175 C20.0827101,21.7939974 20.0498719,16.5737623 19.9898249,11.4006742 C19.9593323,8.78985644 20.2919362,6.18790793 20.4256346,3.58549262 C20.4842742,2.4502327 20.9641809,-0.260013626 17.8403309,1.03209141 C14.4716019,2.42595906 17.5785637,13.6515884 17.7305576,16.0145348 C18.0514336,21.009305 18.1035056,26.0703609 18.1035056,31.0730667" id="path"></path>
                <path d="M221.625824,57.1834 C219.841772,56.7089885 206.103682,56.0062983 205.033157,57.0979549 C202.18937,59.9976677 216.297124,58.2138422 217.453029,59.2423714 C218.050214,59.7728961 125.256062,105.640326 116.537523,109.350492 C111.149715,111.643162 110.50421,111.798749 105.12766,109.609378 C100.432737,107.697066 95.8926232,105.595691 91.2525872,103.622165 C82.2000369,99.7720347 72.960778,95.9926839 63.7196427,92.3443702 C53.4473883,88.2885982 43.4744306,83.899973 33.0361087,80.0453795 C28.2243759,78.2685682 23.5472797,76.3326632 18.8767511,74.3900628 C15.3757311,72.9339894 9.35039264,71.4329616 6.65062445,69.3720772 C11.5786983,67.1674028 19.4021621,70.9324064 21.0515774,67.0312645 C21.0515774,67.0312645 17.2977033,66.0617179 15.2931665,67.0312645 C13.2890988,68.00113 1.59776551,66.2880836 0.134120543,67.8391669 C-1.48902419,69.5601839 12.0862828,73.6446502 14.059858,74.4697691 C19.4518885,76.7235425 24.9180395,78.9017545 30.2814539,81.1848598 C41.848002,86.1094298 53.859273,90.6606557 65.6205047,95.3958436 C77.8128549,100.304472 89.7340555,105.45222 101.637899,110.660863 C103.870896,111.638061 108.329383,114.043914 111.115,114.051566 C113.360663,114.058261 115.8695,112.115342 117.564889,111.256109 C123.030102,108.485839 128.556769,105.794319 134.174445,103.168796 C157.317862,92.3545726 179.298807,80.5012992 202.184678,69.4425375 C207.099148,67.0679294 211.747159,63.659372 217.155139,61.8388817 C219.721678,60.9745473 228.601124,59.0383235 221.625824,57.1834" id="path"></path>
            </g>
        </g>
    </g>
</svg>