<?xml version="1.0" encoding="UTF-8"?>
<svg width="230px" height="303px" viewBox="0 0 230 303" version="1.1" xmlns="http://www.w3.org/2000/svg" xmlns:xlink="http://www.w3.org/1999/xlink">
    <!-- Generator: Sketch 50.2 (55047) - http://www.bohemiancoding.com/sketch -->
    <title>Group</title>
    <desc>Created with Sketch.</desc>
    <defs>
        <path d="M108,0 C30.8571429,0 0,30.875 0,30.875 L0,92.625 C0,138.9375 15.4285714,200.6875 108,247 C200.571429,200.6875 216,138.9375 216,92.625 L216,30.875 C216,30.875 185.142857,0 108,0 Z" id="path-1"></path>
        <linearGradient x1="50%" y1="0%" x2="56.3710387%" y2="87.9024224%" id="linearGradient-3">
            <stop stop-color="#000000" stop-opacity="0" offset="0%"></stop>
            <stop stop-color="#000000" offset="100%"></stop>
        </linearGradient>
    </defs>
    <g id="Storage" stroke="none" stroke-width="1" fill="none" fill-rule="evenodd">
        <g id="Artboard-Copy" transform="translate(-605.000000, -389.000000)">
            <g id="Group" transform="translate(605.000000, 389.000000)">
                <g id="Group-2" transform="translate(7.000000, 0.000000)">
                    <mask id="mask-2" fill="white">
                        <use xlink:href="#path-1"></use>
                    </mask>
                    <use id="Shape" fill="#01991B" fill-rule="nonzero" xlink:href="#path-1"></use>
                    <rect id="Rectangle" fill="url(#linearGradient-3)" opacity="0.300000012" mask="url(#mask-2)" x="0" y="-24" width="216" height="298"></rect>
                </g>
                <g id="lock" transform="translate(102.000000, 169.000000)" fill="#FFFFFF" fill-rule="nonzero">
                    <path d="M8.05555556,15.9090909 L20.9444444,15.9090909 L20.9444444,11.1363636 C20.9444444,9.37973484 20.3151042,7.87997159 19.0564236,6.63707386 C17.7977431,5.39417614 16.2789352,4.77272727 14.5,4.77272727 C12.7210648,4.77272727 11.2022569,5.39417614 9.94357639,6.63707386 C8.68489583,7.87997159 8.05555556,9.37973484 8.05555556,11.1363636 L8.05555556,15.9090909 Z M29,18.2954545 L29,32.6136364 C29,33.2765152 28.7650463,33.8399621 28.2951389,34.3039773 C27.8252315,34.7679924 27.2546296,35 26.5833333,35 L2.41666667,35 C1.74537036,35 1.17476853,34.7679924 0.704861111,34.3039773 C0.234953695,33.8399621 0,33.2765152 0,32.6136364 L0,18.2954545 C0,17.6325757 0.234953695,17.0691288 0.704861111,16.6051136 C1.17476853,16.1410985 1.74537036,15.9090909 2.41666667,15.9090909 L3.22222222,15.9090909 L3.22222222,11.1363636 C3.22222222,8.0871212 4.32986111,5.46875 6.54513889,3.28125 C8.76041667,1.09375 11.412037,0 14.5,0 C17.587963,0 20.2395833,1.09375 22.4548611,3.28125 C24.6701389,5.46875 25.7777778,8.0871212 25.7777778,11.1363636 L25.7777778,15.9090909 L26.5833333,15.9090909 C27.2546296,15.9090909 27.8252315,16.1410985 28.2951389,16.6051136 C28.7650463,17.0691288 29,17.6325757 29,18.2954545 Z" id="Shape"></path>
                </g>
                <path d="M100.348,45.252 L107.096,64.572 L107.096,64.852 L102.224,64.852 L101.076,61.128 L93.796,61.128 L92.648,64.852 L88,64.852 L88,64.572 L94.72,45.252 L100.348,45.252 Z M95,57.264 L99.872,57.264 L97.492,49.648 L97.38,49.648 L95,57.264 Z M109.336,64.852 L109.336,45.252 L123.336,45.252 L123.336,49.172 L113.732,49.172 L113.732,52.784 L122.468,52.784 L122.468,56.704 L113.732,56.704 L113.732,60.96 L123.336,60.96 L123.336,64.852 L109.336,64.852 Z M133.276,65.104 C128.04,65.104 125.268,62.36 125.016,58.132 L129.468,58.132 C129.664,60.26 131.148,61.212 133.276,61.212 C135.964,61.212 136.944,60.372 136.944,59.196 C136.944,58.132 136.3,57.488 134.564,57.124 L131.708,56.508 C128.32,55.78 125.66,54.38 125.66,50.628 C125.66,47.324 128.684,45 133.304,45 C137.784,45 141.088,47.632 141.116,51.384 L136.664,51.384 C136.552,50.096 135.572,48.92 133.248,48.92 C130.952,48.92 130.168,49.816 130.168,50.628 C130.168,51.384 130.56,52.056 132.38,52.448 L135.04,53.008 C138.68,53.764 141.452,55.248 141.452,59.084 C141.452,62.584 139.156,65.104 133.276,65.104 Z" id="AES" fill="#FFFFFF"></path>
                <path d="M43.176,140.656 L43.176,132.56 L63.856,110.296 C70.104,103.52 72.656,100.528 72.656,95.688 C72.656,90.496 69.4,86.976 63.152,86.976 C57.08,86.976 52.944,90.408 52.944,97.448 L43,97.448 C43,85.568 50.744,78 63.152,78 C75.208,78 82.952,85.304 82.952,95.336 C82.952,102.024 79.52,106.864 71.952,114.96 L56.816,131.152 L56.816,131.504 L83.92,131.504 L83.92,140.656 L43.176,140.656 Z M112.544,141.448 C99.608,141.448 91.16,133.176 91.16,122.88 L101.28,122.88 C101.544,127.896 105.152,132.472 112.544,132.472 C120.816,132.472 123.984,126.84 123.984,120.328 C123.984,114.08 120.552,108.536 112.632,108.536 C107.528,108.536 104.448,110.824 102.16,113.904 L92.128,113.904 L94.504,79.056 L130.496,79.056 L130.496,88.12 L102.952,88.12 L101.808,104.312 L102.16,104.312 C104.624,101.936 108.584,100.088 114.128,100.088 C126.536,100.088 134.192,108.712 134.192,120.152 C134.192,132.56 126.712,141.448 112.544,141.448 Z M164.4,141.448 C148.472,141.448 141.784,128.776 141.784,110.824 C141.784,92.784 148.648,78 165.28,78 C177.072,78 184.376,85.304 185.52,94.72 L175.664,94.72 C174.872,90.144 171.176,87.064 165.28,87.064 C155.864,87.064 151.552,95.512 151.552,107.568 L151.904,107.568 C154.632,103.432 159.032,100.44 165.984,100.44 C178.92,100.44 186.136,110.032 186.136,120.504 C186.136,132.208 178.04,141.448 164.4,141.448 Z M164.488,132.472 C171.528,132.472 176.016,127.456 176.016,120.68 C176.016,113.992 171.968,108.888 164.488,108.888 C157.096,108.888 152.872,113.992 152.872,120.592 C152.872,127.456 157.184,132.472 164.488,132.472 Z" id="256" fill="#FFFFFF"></path>
                <path d="M0.637000515,302 L0.637000515,282.4 L14.6370005,282.4 L14.6370005,286.32 L5.03300051,286.32 L5.03300051,289.932 L13.7690005,289.932 L13.7690005,293.852 L5.03300051,293.852 L5.03300051,298.108 L14.6370005,298.108 L14.6370005,302 L0.637000515,302 Z M23.5870004,302 L23.5870004,282.4 L28.7670004,282.4 L35.9910004,295.196 L36.1030004,295.196 L36.1030004,282.4 L40.4710004,282.4 L40.4710004,302 L35.2630004,302 L28.0390004,289.288 L27.9270004,289.288 L27.9270004,302 L23.5870004,302 Z M58.6330003,302.252 C52.3330003,302.252 49.1410003,297.8 49.1410003,292.228 C49.1410003,286.572 52.3330003,282.148 58.6330003,282.148 C63.6450003,282.148 67.0330003,285.648 67.3130003,289.792 L62.8330003,289.792 C62.6650003,287.916 61.3770003,286.124 58.6330003,286.124 C55.3850003,286.124 53.6210003,288.28 53.6210003,292.228 C53.6210003,296.176 55.3850003,298.304 58.6330003,298.304 C61.2650003,298.304 62.5250003,296.652 62.8610003,294.804 L67.3130003,294.804 C66.9210003,298.836 63.6170003,302.252 58.6330003,302.252 Z M87.7710002,294.552 L92.5030002,301.72 L92.5030002,302 L87.3510002,302 L83.1230002,295.084 L80.3790002,295.084 L80.3790002,302 L75.9830002,302 L75.9830002,282.4 L84.9430002,282.4 C89.1150002,282.4 91.6350002,285.312 91.6350002,288.644 C91.6350002,291.472 90.1510002,293.6 87.7710002,294.552 Z M80.3790002,286.32 L80.3790002,291.164 L84.7190002,291.164 C86.4830002,291.164 87.1270002,289.904 87.1270002,288.672 C87.1270002,287.496 86.4270002,286.32 84.7190002,286.32 L80.3790002,286.32 Z M105.401,302 L105.401,294.216 L98.0930001,282.68 L98.0930001,282.4 L103.217,282.4 L107.585,289.792 L107.697,289.792 L111.953,282.4 L117.077,282.4 L117.077,282.68 L109.825,294.16 L109.825,302 L105.401,302 Z M125.187,302 L125.187,282.4 L134.091,282.4 C138.095,282.4 140.559,285.228 140.559,288.868 C140.559,292.62 138.039,295.448 134.091,295.448 L129.583,295.448 L129.583,302 L125.187,302 Z M129.583,291.528 L133.223,291.528 C135.099,291.528 136.079,290.66 136.079,288.868 C136.079,287.188 135.015,286.292 133.223,286.292 L129.583,286.292 L129.583,291.528 Z M153.345,302 L153.345,286.348 L147.689,286.348 L147.689,282.4 L163.425,282.4 L163.425,286.348 L157.769,286.348 L157.769,302 L153.345,302 Z M171.675,302 L171.675,282.4 L176.099,282.4 L176.099,302 L171.675,302 Z M194.289,302.252 C187.961,302.252 184.769,297.8 184.769,292.2 C184.769,286.572 187.961,282.148 194.289,282.148 C200.589,282.148 203.809,286.572 203.809,292.2 C203.809,297.8 200.589,302.252 194.289,302.252 Z M194.289,298.276 C197.537,298.276 199.329,296.148 199.329,292.2 C199.329,288.252 197.537,286.124 194.289,286.124 C191.013,286.124 189.249,288.252 189.249,292.2 C189.249,296.148 191.041,298.276 194.289,298.276 Z M212.478999,302 L212.478999,282.4 L217.658999,282.4 L224.882999,295.196 L224.994999,295.196 L224.994999,282.4 L229.362999,282.4 L229.362999,302 L224.154999,302 L216.930999,289.288 L216.818999,289.288 L216.818999,302 L212.478999,302 Z" id="Encryption" fill="#01991B"></path>
            </g>
        </g>
    </g>
</svg>