<?xml version="1.0" encoding="UTF-8"?>
<svg width="60px" height="60px" viewBox="0 0 60 60" version="1.1" xmlns="http://www.w3.org/2000/svg" xmlns:xlink="http://www.w3.org/1999/xlink">
    <defs></defs>
    <g id="icon__twitter-circle" class="icon icon--twitter" stroke="none" stroke-width="1" fill="none" fill-rule="evenodd">
        <circle id="circle" fill="#F6704D" cx="30" cy="30" r="30"></circle>
        <path d="M50.4393618,19.3637847 C49.4509147,20.901369 48.1330051,22.2741915 46.4855933,23.4822935 L46.4855933,24.4707356 C46.4855933,30.2366769 44.4126312,35.4671308 40.2666449,40.1622544 C36.1206586,44.8573779 30.6156402,47.2049045 23.7514244,47.2049045 C19.3583263,47.2049045 15.2947716,45.9968206 11.5606382,43.5806167 C12.4392578,43.6904442 13.0707562,43.7453571 13.4551523,43.7453571 C17.1343719,43.7453571 20.4291461,42.5921861 23.3395735,40.2858096 C21.637248,40.2308959 20.0996868,39.6954951 18.7268436,38.6795912 C17.3540005,37.6636872 16.4204811,36.3595058 15.9262576,34.7670078 C16.5852223,34.8768352 17.0794384,34.9317481 17.4089208,34.9317481 C17.9580581,34.9317481 18.6719258,34.8219223 19.5505454,34.6022674 C17.7383924,34.2178713 16.2145594,33.2980802 14.9790006,31.8428665 C13.7434417,30.3876527 13.1256716,28.699081 13.1256716,26.7771006 L13.1256716,26.6947304 C14.3337736,27.3536951 15.5418574,27.6831725 16.7499594,27.6831725 C14.3886692,26.1455882 13.2080418,23.9216157 13.2080418,21.0111882 C13.2080418,19.6383451 13.5649756,18.3204354 14.2788541,17.0574197 C18.507211,22.2742237 23.9710447,25.0473252 30.6705193,25.3768076 C30.5606918,24.9924115 30.5057789,24.3883696 30.5057789,23.5646637 C30.5057789,21.3132009 31.2745596,19.4187058 32.8121439,17.8811215 C34.3497282,16.3435372 36.2442233,15.5747565 38.4956861,15.5747565 C40.7471489,15.5747565 42.6691004,16.4259065 44.2615985,18.128232 C45.9090103,17.8536634 47.6113102,17.1947086 49.3685495,16.1513478 C48.8194122,18.0733282 47.6387848,19.5559765 45.8266319,20.5993373 C47.5289574,20.4345961 49.0665186,20.0227494 50.4393618,19.3637847 Z" id="twitter" fill="#FFFFFF" transform="translate(31.000000, 31.389831) rotate(-2.000000) translate(-31.000000, -31.389831) "></path>
    </g>
</svg>