<?xml version="1.0" encoding="UTF-8"?>
<svg width="36px" height="30px" viewBox="0 0 36 30" version="1.1" xmlns="http://www.w3.org/2000/svg" xmlns:xlink="http://www.w3.org/1999/xlink">
    <!-- Generator: Sketch 50.2 (55047) - http://www.bohemiancoding.com/sketch -->
    <title>icon_twitter</title>
    <desc>Created with Sketch.</desc>
    <defs></defs>
    <g id="Designs" stroke="none" stroke-width="1" fill="none" fill-rule="evenodd">
        <g id="Menu" transform="translate(-1124.000000, -880.000000)" fill="#373E4B" fill-rule="nonzero">
            <g id="Social" transform="translate(1077.000000, 876.000000)">
                <path d="M79.2995793,11.4765353 C79.3224309,11.8046446 79.3224309,12.1328261 79.3224309,12.4609354 C79.3224309,22.4687029 71.8985973,34 58.3299896,34 C54.1497545,34 50.2665206,32.7577584 47,30.6016011 C47.593932,30.671869 48.1649421,30.6953157 48.7817257,30.6953157 C52.2309189,30.6953157 55.4061031,29.5000397 57.9416521,27.4609715 C54.6979832,27.3906314 51.9796913,25.2109553 51.0431252,22.2109336 C51.5000176,22.2812015 51.9568397,22.3280949 52.4365837,22.3280949 C53.0990004,22.3280949 53.7614873,22.2343082 54.3782007,22.0703256 C50.9974922,21.3671415 48.4618729,18.3202986 48.4618729,14.6406116 L48.4618729,14.546897 C49.444072,15.109401 50.5863031,15.4609571 51.7968781,15.5077783 C49.8095578,14.1483754 48.5075762,11.8280913 48.5075762,9.20307236 C48.5075762,7.79684828 48.8729917,6.5077855 49.512627,5.38277739 C53.1446334,9.97652446 58.6040688,12.976474 64.7258505,13.3046554 C64.6116625,12.7421514 64.5431076,12.1562728 64.5431076,11.570322 C64.5431076,7.39839889 67.8324798,4 71.9213083,4 C74.0456681,4 75.9644335,4.91406008 77.3121887,6.39062421 C78.9796562,6.06251488 80.578639,5.42967076 81.9949492,4.56250406 C81.4466502,6.32035629 80.2817081,7.79692043 78.7512803,8.73435505 C80.2360751,8.57037253 81.6751667,8.1484043 83,7.5625257 C81.9950898,9.06246438 80.7386709,10.3983484 79.2995793,11.4765353 Z" id="icon_twitter"></path>
            </g>
        </g>
    </g>
</svg>