<?xml version="1.0" encoding="UTF-8"?>
<svg width="23px" height="36px" viewBox="0 0 23 36" version="1.1" xmlns="http://www.w3.org/2000/svg" xmlns:xlink="http://www.w3.org/1999/xlink">
    <!-- Generator: Sketch 49.3 (51167) - http://www.bohemiancoding.com/sketch -->
    <title>icon__chevron left</title>
    <desc>Created with Sketch.</desc>
    <defs></defs>
    <g id="Symbols" stroke="none" stroke-width="1" fill="none" fill-rule="evenodd">
        <g id="Screens-/-iPhone-/-atchop__kpi" transform="translate(-26.000000, -21.000000)" fill="#F6704D" fill-rule="nonzero">
            <g id="Group-2">
                <g id="Screen">
                    <g id="App-Header" transform="translate(-0.136719, -2.195292)">
                        <g id="Logo-MC">
                            <g id="icon__chevron-left" transform="translate(26.136719, 23.195292)">
                                <path d="M22.3967661,6.05615602 L10.7028794,17.7500427 L22.3967661,29.4439295 C22.6757163,29.7228797 22.8151914,30.0532155 22.8151914,30.4349368 C22.8151914,30.8166582 22.6757163,31.1469939 22.3967661,31.4259442 L18.7410501,35.0816602 C18.4620999,35.3606104 18.1317641,35.5000855 17.7500427,35.5000855 C17.3683214,35.5000855 17.0379856,35.3606104 16.7590354,35.0816602 L0.418425325,18.7410501 C0.139475101,18.4620999 0,18.1317641 0,17.7500427 C0,17.3683214 0.139475101,17.0379856 0.418425325,16.7590354 L16.7590354,0.418425325 C17.0379856,0.139475101 17.3683214,0 17.7500427,0 C18.1317641,0 18.4620999,0.139475101 18.7410501,0.418425325 L22.3967661,4.07414132 C22.6757163,4.35309155 22.8151914,4.68342733 22.8151914,5.06514867 C22.8151914,5.44687002 22.6757163,5.7772058 22.3967661,6.05615602 Z" id="Shape"></path>
                            </g>
                        </g>
                    </g>
                </g>
            </g>
        </g>
    </g>
</svg>