<?xml version="1.0" encoding="UTF-8"?>
<svg width="21px" height="21px" viewBox="0 0 21 21" version="1.1" xmlns="http://www.w3.org/2000/svg" xmlns:xlink="http://www.w3.org/1999/xlink">
    <!-- Generator: Sketch 49.3 (51167) - http://www.bohemiancoding.com/sketch -->
    <title>icons / icon__gear 1</title>
    <desc>Created with Sketch.</desc>
    <defs></defs>
    <g id="Symbols" stroke="none" stroke-width="1" fill="none" fill-rule="evenodd">
        <g id="Screens-/-iPhone-/-atchop__kpi" transform="translate(-387.000000, -30.000000)" fill="#878B93" fill-rule="nonzero">
            <g id="Group-2">
                <g id="Screen">
                    <g id="App-Header" transform="translate(-0.136719, -2.195292)">
                        <g id="gear" transform="translate(387.136719, 32.195292)">
                            <g id="icons-/-icon__gear">
                                <path d="M13.8415026,10.381127 C13.8415026,9.42591911 13.5035753,8.61038788 12.8277207,7.93453325 C12.1518661,7.25867863 11.3363349,6.92075132 10.381127,6.92075132 C9.42591911,6.92075132 8.61038788,7.25867863 7.93453325,7.93453325 C7.25867863,8.61038788 6.92075132,9.42591911 6.92075132,10.381127 C6.92075132,11.3363349 7.25867863,12.1518661 7.93453325,12.8277207 C8.61038788,13.5035753 9.42591911,13.8415026 10.381127,13.8415026 C11.3363349,13.8415026 12.1518661,13.5035753 12.8277207,12.8277207 C13.5035753,12.1518661 13.8415026,11.3363349 13.8415026,10.381127 Z M20.762254,8.90776391 L20.762254,11.9085584 C20.762254,12.0166952 20.7262084,12.1203262 20.6541172,12.2194516 C20.5820261,12.3185769 20.4919121,12.377151 20.3837754,12.3951738 L17.8831133,12.7736523 C17.7118968,13.2602677 17.5361746,13.6702861 17.3559467,14.0037078 C17.6713455,14.4542775 18.1534551,15.0760637 18.8022756,15.8690665 C18.8923895,15.9772032 18.9374465,16.0898457 18.9374465,16.2069938 C18.9374465,16.324142 18.8968952,16.427773 18.8157927,16.5178869 C18.572485,16.8513086 18.1264209,17.3379239 17.4776005,17.9777329 C16.8287801,18.617542 16.4052445,18.9374465 16.2069938,18.9374465 C16.0988571,18.9374465 15.9817089,18.8968952 15.8555494,18.8157927 L13.9901907,17.3559467 C13.5936893,17.5632088 13.1836708,17.7344253 12.7601353,17.8695962 C12.6159529,19.0951459 12.4852877,19.9332056 12.3681396,20.3837754 C12.3050598,20.6360944 12.1428547,20.762254 11.8815242,20.762254 L8.88072972,20.762254 C8.7545702,20.762254 8.64418061,20.7239555 8.54956096,20.6473587 C8.45494131,20.5707618 8.4031258,20.4738893 8.3941144,20.3567412 L8.01563581,17.8695962 C7.57407745,17.7254139 7.16856468,17.5587031 6.79909749,17.3694638 L4.89318746,18.8157927 C4.8030735,18.8968952 4.69043107,18.9374465 4.55526015,18.9374465 C4.42910062,18.9374465 4.31645818,18.8878838 4.21733284,18.7887585 C3.08189707,17.7614594 2.33845699,17.0045023 1.98701259,16.5178869 C1.92393282,16.427773 1.89239294,16.324142 1.89239294,16.2069938 C1.89239294,16.0988571 1.92843852,15.995226 2.00052968,15.8961007 C2.1357006,15.7068614 2.36549117,15.4072325 2.68990139,14.997214 C3.01431161,14.5871956 3.25761927,14.2695439 3.41982438,14.044259 C3.17651672,13.5936893 2.99178312,13.1476252 2.86562359,12.7060669 L0.39199568,12.3411054 C0.274847541,12.3230826 0.180227895,12.2667614 0.108136739,12.1721417 C0.0360455843,12.0775221 0,11.9716382 0,11.8544901 L0,8.85369554 C0,8.7455588 0.0360455843,8.64192775 0.108136739,8.54280241 C0.180227895,8.44367707 0.265836156,8.385103 0.364961496,8.36708021 L2.87914069,7.98860162 C3.00530021,7.57407745 3.18102241,7.15955329 3.40630729,6.74502912 C3.04585149,6.23137961 2.56374187,5.60959336 1.9599784,4.87967037 C1.86986445,4.77153363 1.82480748,4.66339689 1.82480748,4.55526015 C1.82480748,4.46514619 1.86535875,4.36151516 1.94646131,4.24436702 C2.18075757,3.9199568 2.62456878,3.43559433 3.27789491,2.79127959 C3.93122104,2.14696484 4.35700945,1.82480748 4.55526015,1.82480748 C4.67240829,1.82480748 4.78955641,1.86986445 4.90670455,1.9599784 L6.77206331,3.40630729 C7.16856468,3.19904521 7.57858316,3.0278287 8.00211872,2.89265778 C8.14630104,1.66710806 8.27696626,0.829048331 8.3941144,0.378478588 C8.45719417,0.126159525 8.61939927,0 8.88072972,0 L11.8815242,0 C12.0076838,0 12.1180734,0.038298424 12.212693,0.114895286 C12.3073127,0.191492147 12.3591282,0.288364634 12.3681396,0.405512773 L12.7466182,2.89265778 C13.1881765,3.0368401 13.5936893,3.20355091 13.9631565,3.3927902 L15.8825836,1.94646131 C15.9636862,1.86535875 16.0718229,1.82480748 16.2069938,1.82480748 C16.324142,1.82480748 16.4367844,1.86986445 16.5449211,1.9599784 C17.7073911,3.0323344 18.4508312,3.79830297 18.7752414,4.25788411 C18.8383211,4.32997527 18.869861,4.42910062 18.869861,4.55526015 C18.869861,4.66339689 18.8338154,4.76702793 18.7617243,4.86615327 C18.6265534,5.05539257 18.3967628,5.35502145 18.0723526,5.76503992 C17.7479424,6.17505839 17.5046347,6.49271006 17.3424296,6.71799494 C17.5767258,7.16856468 17.7614594,7.61012304 17.8966304,8.04266999 L20.3702583,8.42114858 C20.4874064,8.43917137 20.5820261,8.49549259 20.6541172,8.59011224 C20.7262084,8.68473188 20.762254,8.79061577 20.762254,8.90776391 Z" id="Shape"></path>
                            </g>
                        </g>
                    </g>
                </g>
            </g>
        </g>
    </g>
</svg>