<?xml version="1.0" encoding="UTF-8"?>
<svg width="38px" height="37px" viewBox="0 0 38 37" version="1.1" xmlns="http://www.w3.org/2000/svg" xmlns:xlink="http://www.w3.org/1999/xlink">
    <!-- Generator: Sketch 50.2 (55047) - http://www.bohemiancoding.com/sketch -->
    <title>icon_github</title>
    <desc>Created with Sketch.</desc>
    <defs></defs>
    <g id="Designs" stroke="none" stroke-width="1" fill="none" fill-rule="evenodd">
        <g id="Menu" transform="translate(-1182.000000, -876.000000)" fill="#373E4B" fill-rule="nonzero">
            <g id="Social" transform="translate(1077.000000, 876.000000)">
                <path d="M143,18.9633352 C143,23.0951035 141.791884,26.8112258 139.375651,30.1117021 C136.959418,33.4121784 133.838108,35.6961739 130.011719,36.9636885 C129.566406,37.0459946 129.240668,36.9883803 129.034505,36.7908456 C128.828342,36.5933108 128.72526,36.3463924 128.72526,36.0500903 L128.72526,30.8401115 C128.72526,29.2433723 128.296441,28.0746251 127.438802,27.3338698 C128.378906,27.2351025 129.224175,27.0869514 129.974609,26.8894167 C130.725043,26.6918819 131.500217,26.370888 132.30013,25.9264348 C133.100043,25.4819816 133.768012,24.9346458 134.304036,24.2844273 C134.840061,23.6342087 135.277127,22.7699942 135.615234,21.6917838 C135.953342,20.6135733 136.122396,19.3748659 136.122396,17.9756615 C136.122396,15.9838528 135.47092,14.2883463 134.167969,12.8891419 C134.778212,11.3911701 134.71224,9.71212477 133.970052,7.85200597 C133.508247,7.70385491 132.840278,7.79439165 131.966146,8.12361624 C131.092014,8.4528408 130.333333,8.81498783 129.690104,9.21005731 L128.75,9.80266154 C127.216146,9.37466958 125.632812,9.16067363 124,9.16067363 C122.367187,9.16067363 120.783854,9.37466958 119.25,9.80266154 C118.986111,9.62158801 118.635634,9.39936142 118.198568,9.13598179 C117.761502,8.87260212 117.072917,8.55572348 116.132812,8.18534584 C115.192708,7.8149682 114.483507,7.70385491 114.005208,7.85200597 C113.279514,9.71212477 113.221788,11.3911701 113.832031,12.8891419 C112.52908,14.2883463 111.877604,15.9838528 111.877604,17.9756615 C111.877604,19.3748659 112.046658,20.609458 112.384766,21.6794379 C112.722873,22.7494177 113.155816,23.6136322 113.683594,24.2720813 C114.211372,24.9305305 114.875217,25.4819816 115.67513,25.9264348 C116.475043,26.370888 117.250217,26.6918819 118.000651,26.8894167 C118.751085,27.0869514 119.596354,27.2351025 120.536458,27.3338698 C119.876736,27.9264741 119.472656,28.7742273 119.324219,29.8771296 C118.977865,30.0417419 118.606771,30.1652011 118.210937,30.2475073 C117.815104,30.3298134 117.345052,30.3709665 116.800781,30.3709665 C116.25651,30.3709665 115.716363,30.1940083 115.180339,29.8400919 C114.644314,29.4861754 114.186632,28.9717621 113.807292,28.2968517 C113.493924,27.7700924 113.093967,27.3421004 112.607422,27.0128759 C112.120877,26.6836513 111.712674,26.4861165 111.382812,26.4202717 L110.888021,26.3461961 C110.541667,26.3461961 110.302517,26.3832339 110.170573,26.4573094 C110.038628,26.5313849 109.997396,26.626037 110.046875,26.7412656 C110.096354,26.8564942 110.170573,26.9717228 110.269531,27.0869514 C110.36849,27.20218 110.475694,27.3009474 110.591146,27.3832535 L110.764323,27.5067127 C111.12717,27.671325 111.485894,27.9840883 111.840495,28.4450028 C112.195095,28.9059171 112.454861,29.3256785 112.619792,29.7042867 L112.867187,30.2721991 C113.081597,30.8977258 113.444444,31.4039086 113.955729,31.7907474 C114.467014,32.1775863 115.019531,32.4245047 115.613281,32.5315027 C116.207031,32.6385007 116.780165,32.696115 117.332682,32.7043456 C117.8852,32.7125762 118.342882,32.6837691 118.705729,32.6179242 L119.27474,32.5191568 C119.27474,33.1446835 119.278863,33.8772081 119.287109,34.7167308 C119.295356,35.5562534 119.299479,36.0007066 119.299479,36.0500903 C119.299479,36.3463924 119.192274,36.5933108 118.977865,36.7908456 C118.763455,36.9883803 118.433594,37.0459946 117.988281,36.9636885 C114.161892,35.6961739 111.040582,33.4121784 108.624349,30.1117021 C106.208116,26.8112258 105,23.0951035 105,18.9633352 C105,15.5229384 105.849392,12.3500366 107.548177,9.44462982 C109.246962,6.53922299 111.551866,4.23876631 114.462891,2.54325979 C117.373915,0.847753257 120.552951,0 124,0 C127.447049,0 130.626085,0.847753257 133.537109,2.54325979 C136.448134,4.23876631 138.753038,6.53922299 140.451823,9.44462982 C142.150608,12.3500366 143,15.5229384 143,18.9633352 Z" id="icon_github"></path>
            </g>
        </g>
    </g>
</svg>