<?xml version="1.0" encoding="UTF-8" standalone="no"?>
<!-- Created with Keyshape -->
<svg xmlns="http://www.w3.org/2000/svg" xmlns:xlink="http://www.w3.org/1999/xlink" width="140" height="150" viewBox="0 0 140 150" style="background: rgba(255,207,0,0.00);">
    <style>
@keyframes ellipse_t { 0% { transform: translate(70px,70px); } 40% { transform: translate(70px,70px); animation-timing-function: cubic-bezier(0.25,0.46,0.45,0.94); } 50% { transform: translate(70px,80px); animation-timing-function: cubic-bezier(0.55,0.085,0.68,0.53); } 70% { transform: translate(70px,70px); } 100% { transform: translate(70px,70px); } }
@keyframes el5_t { 0% { transform: translate(0px,8px); animation-timing-function: cubic-bezier(0.55,0.055,0.675,0.19); } 50% { transform: translate(0px,66.427569px); animation-timing-function: cubic-bezier(0.215,0.61,0.355,1); } 100% { transform: translate(0px,8px); } }
@keyframes el4_t { 0% { transform: translate(73.87156px,82.255637px) rotate(-7deg) translate(-73.87156px,-84.255637px); animation-timing-function: cubic-bezier(0.55,0.055,0.675,0.19); } 50% { transform: translate(73.87156px,150.683206px) rotate(-7deg) translate(-73.87156px,-84.255637px); animation-timing-function: cubic-bezier(0.215,0.61,0.355,1); } 100% { transform: translate(73.871559px,82.255638px) rotate(-7deg) translate(-73.87156px,-84.255637px); } }
@keyframes el3_t { 0% { transform: translate(0px,-12px); animation-timing-function: cubic-bezier(0.55,0.055,0.675,0.19); } 50% { transform: translate(0px,66.427569px); animation-timing-function: cubic-bezier(0.215,0.61,0.355,1); } 100% { transform: translate(0px,-12px); } }
@keyframes el2_t { 0% { transform: translate(0px,-22px); animation-timing-function: cubic-bezier(0.55,0.055,0.675,0.19); } 50% { transform: translate(0px,66.427569px); animation-timing-function: cubic-bezier(0.215,0.61,0.355,1); } 100% { transform: translate(0px,-22px); } }
@keyframes el1_t { 0% { transform: translate(0px,-32px); animation-timing-function: cubic-bezier(0.55,0.055,0.675,0.19); } 50% { transform: translate(0px,66.427569px); animation-timing-function: cubic-bezier(0.215,0.61,0.355,1); } 100% { transform: translate(0px,-32px); } }
    </style>
    <title>logo</title>
    <desc>Created with Sketch.</desc>
    <ellipse id="ellipse" rx="67" ry="67" fill="#ffffff" stroke="none" transform="translate(70,70)" style="animation: ellipse_t 1s linear infinite both;"/>
    <g id="logo" stroke="none" stroke-width="1" fill="none" fill-rule="evenodd" transform="translate(70,80) scale(0.616759,0.616759) translate(-70.3871,-80.6933)">
        <path id="el5" d="M40.6472,98.3624L40.6472,99.4605C40.6472,99.4605,40.6472,102.096,43.5624,102.096L92.1083,102.096C92.1083,102.096,96.1266,102.096,96.1266,98.4637L96.1266,93.9238C96.1266,93.9238,96.1266,90.2919,92.1083,90.2919L90.367,90.2919L43.2449,95.7274L43.2503,95.7504C42.5001,95.8363,40.6472,96.2599,40.6472,98.3624" fill="#F6704D" transform="translate(0,8)" style="animation: el5_t 1s linear infinite both;"/>
        <path id="el4" d="M101.612,82.9821C101.612,82.9821,101.612,80.0746,98.1024,80.0746L81.7431,80.0746L66.0006,80.0746L49.6413,80.0746C46.1312,80.0746,46.1312,82.9821,46.1312,82.9821L46.1312,85.5292C46.1312,87.8491,48.3618,88.3165,49.2649,88.4113L49.259,88.4367L66.1532,88.4367L81.59,88.4367L98.4847,88.4367L98.4782,88.4113C99.3813,88.3165,101.612,87.8491,101.612,85.5292L101.612,82.9821Z" fill="#373E4B" transform="translate(73.8716,82.2556) rotate(-7) translate(-73.8716,-84.2556)" style="animation: el4_t 1s linear infinite both;"/>
        <path id="el3" d="M94.4793,70.6246C94.4793,70.572,94.4762,70.5648,94.4762,70.555C94.4731,70.499,94.4646,70.4102,94.4466,70.2961C94.3562,69.3117,93.842,68.7365,93.2589,68.408C93.1317,68.3384,93.0421,68.2889,92.9494,68.25C92.9046,68.2304,92.8549,68.2146,92.8074,68.1966C92.4505,68.0651,92.1092,67.9968,91.8763,67.9703L44.7596,62.5118L43.0183,62.5118C39,62.5118,39,66.1437,39,66.1437L39,76.1612C39,76.1612,39,79.7931,43.0183,79.7931L44.7596,79.7931L91.8812,74.3577C92.1092,74.3081,92.45,74.2402,92.807,74.1083C92.8549,74.0907,92.9046,74.0745,92.9499,74.0549C93.0421,74.016,93.1317,73.9665,93.2231,73.9169C93.842,73.5684,94.3562,72.9932,94.4466,72.0092C94.4646,71.8947,94.4731,71.8059,94.4762,71.7499C94.4762,71.7401,94.4793,70.6246,94.4793,70.6246Z" fill="#488ED8" transform="translate(0,-12)" style="animation: el3_t 1s linear infinite both;"/>
        <path id="el2" d="M46.295,55.6841C46.295,55.6315,46.2981,55.6243,46.2981,55.6144C46.3012,55.5585,46.3097,55.4697,46.3276,55.3556C46.4181,54.3712,46.9323,53.7959,47.5154,53.4675C47.6426,53.3979,47.7322,53.3484,47.8249,53.3095C47.8697,53.2899,47.9194,53.2741,47.9668,53.2561C48.3238,53.1246,48.6651,53.0562,48.898,53.0298L96.0147,47.5713L97.756,47.5713C101.774,47.5713,101.774,51.2031,101.774,51.2031L101.774,61.2207C101.774,61.2207,101.774,64.8526,97.756,64.8526L96.0147,64.8526L48.893,59.4172C48.6651,59.3676,48.3242,59.2997,47.9673,59.1677C47.9194,59.1502,47.8697,59.134,47.8244,59.1144C47.7322,59.0755,47.6426,59.0259,47.5512,58.9764C46.9323,58.6279,46.4181,58.0526,46.3276,57.0686C46.3097,56.9542,46.3012,56.8654,46.2981,56.8094C46.2981,56.7996,46.295,55.6841,46.295,55.6841Z" fill="#FFD138" transform="translate(0,-22)" style="animation: el2_t 1s linear infinite both;"/>
        <path id="el1" d="M95.8913,40.6351C95.8913,40.6351,95.8913,38,92.9761,38L44.4302,38C44.4302,38,40.4119,38,40.4119,41.6319L40.4119,46.1717C40.4119,46.1717,40.4119,49.8036,44.4302,49.8036L46.1715,49.8036L93.2936,44.3682C94.0384,44.2593,95.8913,43.8356,95.8913,41.7331L95.8913,40.6351Z" fill="#F6704D" transform="translate(0,-32)" style="animation: el1_t 1s linear infinite both;"/>
    </g>
</svg>
