<?xml version="1.0" encoding="UTF-8"?>
<svg width="850px" height="173px" viewBox="0 0 850 173" version="1.1" xmlns="http://www.w3.org/2000/svg" xmlns:xlink="http://www.w3.org/1999/xlink">
    <!-- Generator: Sketch 50.2 (55047) - http://www.bohemiancoding.com/sketch -->
    <title>dfv_logo</title>
    <desc>Created with Sketch.</desc>
    <defs></defs>
    <g id="Page-1" stroke="none" stroke-width="1" fill="none" fill-rule="evenodd">
        <g id="dfv_logo" fill-rule="nonzero">
            <path d="M302.261511,93.2963037 L281.770075,138.975331 L281.770075,84.000424 L273.375819,84.000424 L273.375819,154.780255 L283.872255,154.780255 L305.761931,105.388662 C313.056882,121.680559 320.554337,138.372642 327.651606,154.780255 L338.148043,154.780255 L338.148043,84.000424 L329.748965,84.000424 L329.748965,139.076583 L309.35878,93.2963037 L302.261511,93.2963037" id="path94" fill="#0053A6" transform="translate(305.761931, 119.390340) scale(-1, 1) rotate(-180.000000) translate(-305.761931, -119.390340) "></path>
            <path d="M371.025949,148.087993 C364.931555,148.087993 358.933591,145.093833 359.030021,138.792113 L359.030021,131.593592 L383.219559,131.593592 L383.219559,138.994617 C383.219559,145.093833 376.922661,148.087993 371.025949,148.087993 Z M359.030021,119.2023 C358.933591,112.905403 364.931555,109.906421 371.025949,109.906421 C375.726926,109.906421 380.722015,112.206283 382.824195,117.008511 L390.017894,113.40684 C386.421045,105.808134 378.523404,102.00878 371.025949,102.00878 C361.03095,102.00878 350.93952,107.70781 350.93952,119.2023 L350.93952,138.792113 C350.93952,150.387855 361.03095,155.985634 371.025949,155.985634 C380.823266,155.985634 390.818266,150.387855 390.818266,138.792113 L390.818266,124.896509 L359.030021,124.896509 L359.030021,119.2023 Z" id="path98" fill="#0053A6" transform="translate(370.878893, 128.997207) scale(-1, 1) rotate(-180.000000) translate(-370.878893, -128.997207) "></path>
            <path d="M432.799191,93.402377 L432.799191,128.286034 C428.898586,129.785524 424.602617,130.687148 420.702012,130.687148 C414.704048,130.585896 408.706084,127.586914 408.807336,121.386446 L408.807336,101.796634 C408.706084,95.7022394 414.607618,91.9077076 420.50433,91.9077076 C424.501365,91.9077076 428.898586,92.2066415 432.799191,93.402377 Z M440.793262,88.5085399 C433.994927,86.2086776 427.100161,84.8056169 420.50433,84.8056169 C410.610582,85.0081205 400.712013,90.5046469 400.712013,101.999137 L400.712013,121.386446 C400.712013,132.586824 410.707012,138.681219 420.702012,138.681219 C425.104054,138.681219 429.10109,138.285854 432.799191,135.484554 L432.799191,155.985634 L440.793262,155.985634 L440.793262,88.5085399 Z" id="path102" fill="#0053A6" transform="translate(420.752638, 120.395625) scale(-1, 1) rotate(-180.000000) translate(-420.752638, -120.395625) "></path>
            <path d="M461.588454,136.381356 L453.588115,136.381356 L453.588115,84.3041794 L461.588454,84.3041794 L461.588454,136.381356 Z M457.388915,154.780255 C460.5904,154.780255 462.986693,152.383962 462.986693,149.172834 C462.986693,146.0726 460.5904,143.575056 457.388915,143.575056 C454.293502,143.575056 451.791136,146.0726 451.791136,149.172834 C451.791136,152.383962 454.293502,154.780255 457.388915,154.780255 Z" id="path106" fill="#0053A6" transform="translate(457.388915, 119.542217) scale(-1, 1) rotate(-180.000000) translate(-457.388915, -119.542217) "></path>
            <path d="M494.36993,148.087993 C488.270714,148.087993 482.27275,145.093833 482.374002,138.792113 L482.374002,131.593592 L506.56354,131.593592 L506.56354,138.994617 C506.56354,145.093833 500.266642,148.087993 494.36993,148.087993 Z M482.374002,119.2023 C482.27275,112.905403 488.270714,109.906421 494.36993,109.906421 C499.070906,109.906421 504.065995,112.206283 506.163354,117.008511 L513.357053,113.40684 C509.760204,105.808134 501.867385,102.00878 494.36993,102.00878 C484.374931,102.00878 474.273858,107.70781 474.273858,119.2023 L474.273858,138.792113 C474.273858,150.387855 484.374931,155.985634 494.36993,155.985634 C504.167247,155.985634 514.162246,150.387855 514.162246,138.792113 L514.162246,124.896509 L482.374002,124.896509 L482.374002,119.2023 Z" id="path110" fill="#0053A6" transform="translate(494.218052, 128.997207) scale(-1, 1) rotate(-180.000000) translate(-494.218052, -128.997207) "></path>
            <path d="M525.357803,150.493929 C531.953634,152.793791 539.050904,154.785077 545.550305,154.785077 C555.342801,154.587394 565.043688,149.293372 565.043688,137.798881 L565.043688,103.011655 L557.141226,103.011655 L557.141226,137.798881 C557.141226,144.090958 551.148083,147.094761 545.550305,147.094761 C540.95058,147.094761 536.249604,145.894204 533.356695,144.794899 L533.356695,103.011655 L525.357803,103.011655 L525.357803,150.493929" id="path114" fill="#0053A6" transform="translate(545.200745, 128.898366) scale(-1, 1) rotate(-180.000000) translate(-545.200745, -128.898366) "></path>
            <path d="M608.519283,162.576644 C605.621553,163.675949 600.920576,164.972936 596.325673,164.972936 C590.525391,164.972936 584.729931,161.57859 584.826361,155.378123 L584.826361,135.990813 C584.729931,129.99285 590.626643,126.694934 596.523355,126.49243 C600.621642,126.593682 604.517426,127.28798 608.519283,128.792293 L608.519283,162.576644 Z M583.924738,114.496502 C586.12817,111.700024 591.624696,109.501414 596.123169,109.501414 C602.318815,109.501414 608.519283,112.399144 608.519283,118.797293 L608.519283,121.690202 C605.120115,119.496413 600.718072,118.994975 596.721037,118.994975 C586.726038,118.893724 576.83229,124.992939 576.83229,136.188496 L576.83229,155.378123 C576.83229,166.674931 586.528356,172.373961 596.325673,172.373961 C600.621642,172.373961 605.819235,171.371086 610.216456,170.170529 C611.913629,169.673913 614.811359,168.671038 616.412102,168.275674 L616.412102,118.797293 C616.412102,107.201551 606.619606,102.10521 596.822289,102.10521 C590.125205,102.10521 583.23044,104.704007 578.630715,109.699096 L583.924738,114.496502 Z" id="path118" fill="#0053A6" transform="translate(596.622196, 137.239586) scale(-1, 1) rotate(-180.000000) translate(-596.622196, -137.239586) "></path>
            <path d="M652.346848,154.34498 L652.346848,146.148405 C648.648747,146.751095 647.751945,147.15128 644.449208,146.346087 C640.350921,145.251604 636.455137,142.252622 636.455137,137.455215 L636.455137,102.470307 L628.461066,102.470307 L628.461066,137.455215 C628.461066,146.751095 635.052076,152.647807 643.253472,154.243728 C646.049951,154.947669 649.347866,154.947669 652.346848,154.34498" id="path122" fill="#0053A6" transform="translate(640.403957, 128.627692) scale(-1, 1) rotate(-180.000000) translate(-640.403957, -128.627692) "></path>
            <path d="M698.074091,106.709757 C688.378025,103.310589 682.27881,102.910403 677.881589,102.910403 C668.089093,103.011655 658.291776,108.710685 658.291776,120.108745 L658.291776,155.6867 L666.285846,155.6867 L666.285846,119.906242 C666.285846,113.903456 672.086128,110.50911 677.881589,110.403037 C682.481313,110.403037 686.5796,110.909296 690.075198,112.109853 L690.075198,155.6867 L698.074091,155.6867 L698.074091,106.709757" id="path126" fill="#0053A6" transform="translate(678.182933, 129.298552) scale(-1, 1) rotate(-180.000000) translate(-678.182933, -129.298552) "></path>
            <path d="M717.567473,129.496234 C721.362005,128.097994 725.566366,127.196371 729.659831,127.196371 C735.652974,127.297623 741.660581,130.397857 741.554507,136.593503 L741.554507,155.87956 C741.660581,161.882346 735.759047,165.281513 729.857513,165.281513 C725.764048,165.281513 721.362005,165.180262 717.567473,164.076135 L717.567473,129.496234 Z M709.568581,169.177297 C716.366916,171.375907 723.261682,172.875398 729.857513,172.875398 C739.756082,172.778968 749.654652,167.27762 749.654652,155.681878 L749.654652,136.593503 C749.654652,125.296695 739.654831,119.2023 729.563401,119.298731 C725.363862,119.298731 721.265575,119.698916 717.567473,122.095209 L717.567473,102.10521 L709.568581,102.10521 L709.568581,169.177297 Z" id="path130" fill="#0053A6" transform="translate(729.611616, 137.490304) scale(-1, 1) rotate(-180.000000) translate(-729.611616, -137.490304) "></path>
            <path d="M768.039086,129.496234 C771.833618,128.097994 776.037978,127.196371 780.136265,127.196371 C786.129408,127.297623 792.132193,130.397857 792.030941,136.593503 L792.030941,155.87956 C792.132193,161.882346 786.23066,165.281513 780.333947,165.281513 C776.23566,165.281513 771.833618,165.180262 768.039086,164.076135 L768.039086,129.496234 Z M760.045015,169.177297 C766.838529,171.375907 773.738116,172.875398 780.333947,172.875398 C790.227695,172.778968 800.126264,167.27762 800.126264,155.681878 L800.126264,136.593503 C800.126264,125.296695 790.126443,119.2023 780.035014,119.298731 C775.835475,119.298731 771.737187,119.698916 768.039086,122.095209 L768.039086,102.10521 L760.045015,102.10521 L760.045015,169.177297 Z" id="path134" fill="#0053A6" transform="translate(780.085639, 137.490304) scale(-1, 1) rotate(-180.000000) translate(-780.085639, -137.490304) "></path>
            <path d="M830.207692,148.087993 C824.113298,148.087993 818.115334,145.093833 818.216586,138.792113 L818.216586,131.593592 L842.401302,131.593592 L842.401302,138.994617 C842.401302,145.093833 836.109226,148.087993 830.207692,148.087993 Z M818.216586,119.2023 C818.115334,112.905403 824.113298,109.906421 830.207692,109.906421 C834.908669,109.906421 839.903758,112.206283 842.005938,117.008511 L849.199637,113.40684 C845.602788,105.808134 837.705147,102.00878 830.207692,102.00878 C820.212693,102.00878 810.121263,107.70781 810.121263,119.2023 L810.121263,138.792113 C810.121263,150.387855 820.212693,155.985634 830.207692,155.985634 C840.005009,155.985634 850.000009,150.387855 850.000009,138.792113 L850.000009,124.896509 L818.216586,124.896509 L818.216586,119.2023 Z" id="path138" fill="#0053A6" transform="translate(830.060636, 128.997207) scale(-1, 1) rotate(-180.000000) translate(-830.060636, -128.997207) "></path>
            <path d="M244.176727,5.48750062e-07 L269.055742,5.48750062e-07 C281.258995,23.2204138 300.053258,59.0973022 300.053258,59.0973022 L273.549393,59.0973022 C273.549393,59.0973022 253.274925,18.3651488 244.176727,5.48750062e-07" id="path142" fill="#E43518" transform="translate(272.114993, 29.548651) scale(-1, 1) rotate(-180.000000) translate(-272.114993, -29.548651) "></path>
            <path d="M152.346165,59.117704 L152.346165,154.752442 L175.238715,154.752442 L175.267644,80.2889736 L178.681276,80.2889736 C179.751652,80.2889736 182.51438,83.6640337 183.440111,85.7855 C184.172981,87.4585655 217.668041,154.752442 217.668041,154.752442 L244.176727,154.752442 C244.176727,154.752442 201.790795,73.8667165 200.050228,70.7857688 C195.951941,63.5342112 190.484343,59.276814 185.050497,59.108061 C184.033157,59.0791319 152.346165,59.117704 152.346165,59.117704" id="path146" fill="#0053A6" transform="translate(198.261446, 106.924872) scale(-1, 1) rotate(-180.000000) translate(-198.261446, -106.924872) "></path>
            <path d="M119.265755,11.165982 L95.6837277,11.165982 L95.6837277,120.272031 C95.6837277,140.054704 109.396115,153.559766 130.615599,154.659071 C131.984909,154.716929 137.843049,154.880861 143.363683,154.480675 C143.363683,153.815306 143.363683,131.390443 143.363683,131.390443 C143.363683,131.390443 136.304986,131.390443 136.034982,131.3808 C125.379435,131.202404 119.265755,127.152332 119.265755,120.272031 L119.265755,106.810363 L142.264378,106.810363 L142.264378,83.2235143 L119.265755,83.2235143 L119.265755,11.165982" id="path150" fill="#0053A6" transform="translate(119.523706, 82.953832) scale(-1, 1) rotate(-180.000000) translate(-119.523706, -82.953832) "></path>
            <path d="M23.5876233,81.1316229 L23.5876233,45.2981281 C24.2674568,32.9213007 38.5246748,31.9521763 42.8785023,31.9521763 C47.1358995,31.9521763 51.4125827,32.6850465 54.8021073,33.9820339 L54.8021073,91.059121 C51.3161525,93.0166559 46.7549999,94.1207827 42.1359891,94.1207827 C34.1708473,94.1207827 24.5519262,90.721615 23.5876233,81.1316229 Z M40.6172121,11.6632438 L40.6123905,11.6632438 C16.1528481,11.6632438 1.73169862,23.5579198 0.00559647625,45.1583042 L0.000774961875,80.3023225 C-0.0570832106,89.1594444 3.12511628,97.0811925 9.20022439,103.194873 C16.4180314,110.460895 27.5798372,114.800258 39.0502199,114.800258 C44.5901399,114.800258 49.980593,113.802204 54.8021073,111.87842 L54.8021073,158.068528 L78.3889557,158.068528 L78.3889557,19.5705274 C78.3889557,19.5705274 60.047915,11.6632438 40.6172121,11.6632438 Z" id="path162" fill="#0053A6" transform="translate(39.194478, 84.865886) scale(-1, 1) rotate(-180.000000) translate(-39.194478, -84.865886) "></path>
        </g>
    </g>
</svg>