<?xml version="1.0" encoding="UTF-8"?>
<svg width="86px" height="14px" viewBox="0 0 86 14" version="1.1" xmlns="http://www.w3.org/2000/svg" xmlns:xlink="http://www.w3.org/1999/xlink">
    <!-- Generator: Sketch 49.3 (51167) - http://www.bohemiancoding.com/sketch -->
    <title>Logos / FischerAppelt mono</title>
    <desc>Created with Sketch.</desc>
    <defs></defs>
    <g id="Logos-/-FischerAppelt-mono" stroke="none" stroke-width="1" fill="none" fill-rule="evenodd">
        <g id="Group-4" fill="#373E4B">
            <path d="M5.11,11 L5.11,3.762 L6.3,3.762 L6.3,11 L5.11,11 Z M5.11,2.46 L5.11,1.004 L6.3,1.004 L6.3,2.46 L5.11,2.46 Z M1.386,4.812 L0.168,4.812 L0.168,3.762 L1.386,3.762 L1.386,2.684 C1.386,2.09599706 1.55633163,1.65033485 1.897,1.347 C2.23766837,1.04366515 2.7346634,0.892 3.388,0.892 C3.50000056,0.892 3.62833261,0.90133324 3.773,0.92 C3.91766739,0.93866676 4.04599944,0.96666648 4.158,1.004 L4.158,2.04 C4.05533282,2.00266648 3.94333394,1.97700007 3.822,1.963 C3.70066606,1.94899993 3.58866718,1.942 3.486,1.942 C3.19666522,1.942 2.97266746,1.99799944 2.814,2.11 C2.65533254,2.22200056 2.576,2.43666508 2.576,2.754 L2.576,3.762 L3.976,3.762 L3.976,4.812 L2.576,4.812 L2.576,11 L1.386,11 L1.386,4.812 Z M8.876,8.718 C8.88533338,8.97933464 8.94599944,9.20099909 9.058,9.383 C9.17000056,9.56500091 9.31699909,9.70966613 9.499,9.817 C9.68100091,9.92433387 9.88633219,10.0013331 10.115,10.048 C10.3436678,10.0946669 10.5793321,10.118 10.822,10.118 C11.0086676,10.118 11.2046656,10.1040001 11.41,10.076 C11.6153344,10.0479999 11.8043325,9.99666704 11.977,9.922 C12.1496675,9.84733296 12.2919994,9.73766739 12.404,9.593 C12.5160006,9.44833261 12.572,9.26400112 12.572,9.04 C12.572,8.73199846 12.4553345,8.49866746 12.222,8.34 C11.9886655,8.18133254 11.6970018,8.05300049 11.347,7.955 C10.9969983,7.85699951 10.6166687,7.76833373 10.206,7.689 C9.79533128,7.60966627 9.41500175,7.49766739 9.065,7.353 C8.71499825,7.20833261 8.4233345,7.00533464 8.19,6.744 C7.9566655,6.48266536 7.84,6.118669 7.84,5.652 C7.84,5.28799818 7.92166585,4.97533464 8.085,4.714 C8.24833415,4.45266536 8.45833205,4.24033415 8.715,4.077 C8.97166795,3.91366585 9.26099839,3.79233373 9.583,3.713 C9.90500161,3.63366627 10.2246651,3.594 10.542,3.594 C10.9526687,3.594 11.3306649,3.62899965 11.676,3.699 C12.0213351,3.76900035 12.3269987,3.89033247 12.593,4.063 C12.8590013,4.23566753 13.0713325,4.46899853 13.23,4.763 C13.3886675,5.05700147 13.4819999,5.42333114 13.51,5.862 L12.32,5.862 C12.3013332,5.6286655 12.2406672,5.43500077 12.138,5.281 C12.0353328,5.12699923 11.9046675,5.0033338 11.746,4.91 C11.5873325,4.8166662 11.4123343,4.74900021 11.221,4.707 C11.0296657,4.66499979 10.836001,4.644 10.64,4.644 C10.4626658,4.644 10.2830009,4.65799986 10.101,4.686 C9.91899909,4.71400014 9.75333408,4.76299965 9.604,4.833 C9.45466592,4.90300035 9.3333338,4.99633275 9.24,5.113 C9.1466662,5.22966725 9.1,5.3813324 9.1,5.568 C9.1,5.77333436 9.17233261,5.94366599 9.317,6.079 C9.46166739,6.21433401 9.64599888,6.32633289 9.87,6.415 C10.0940011,6.50366711 10.3459986,6.57833303 10.626,6.639 C10.9060014,6.69966697 11.1859986,6.76266634 11.466,6.828 C11.7646682,6.89333366 12.0563319,6.9726662 12.341,7.066 C12.6256681,7.1593338 12.8776656,7.28299923 13.097,7.437 C13.3163344,7.59100077 13.493666,7.7846655 13.629,8.018 C13.764334,8.2513345 13.832,8.54066494 13.832,8.886 C13.832,9.32466886 13.7410009,9.68866522 13.559,9.978 C13.3769991,10.2673348 13.1390015,10.5006658 12.845,10.678 C12.5509985,10.8553342 12.2196685,10.9789997 11.851,11.049 C11.4823315,11.1190004 11.1160018,11.154 10.752,11.154 C10.3506647,11.154 9.96800182,11.1120004 9.604,11.028 C9.23999818,10.9439996 8.9180014,10.8063343 8.638,10.615 C8.3579986,10.4236657 8.13400084,10.1716682 7.966,9.859 C7.79799916,9.54633177 7.70466676,9.16600224 7.686,8.718 L8.876,8.718 Z M20.062,6.086 C19.9686662,5.62866438 19.7726682,5.27400126 19.474,5.022 C19.1753318,4.76999874 18.7740025,4.644 18.27,4.644 C17.8406645,4.644 17.4813348,4.72333254 17.192,4.882 C16.9026652,5.04066746 16.6716675,5.25066536 16.499,5.512 C16.3263325,5.77333464 16.202667,6.07433163 16.128,6.415 C16.053333,6.75566837 16.016,7.10799818 16.016,7.472 C16.016,7.80800168 16.0556663,8.13466508 16.135,8.452 C16.2143337,8.76933492 16.3379992,9.05166543 16.506,9.299 C16.6740008,9.54633457 16.893332,9.74466592 17.164,9.894 C17.434668,10.0433341 17.7566648,10.118 18.13,10.118 C18.7180029,10.118 19.177665,9.96400154 19.509,9.656 C19.840335,9.34799846 20.043333,8.9140028 20.118,8.354 L21.336,8.354 C21.2053327,9.25000448 20.8716694,9.94066424 20.335,10.426 C19.7983307,10.9113358 19.0680046,11.154 18.144,11.154 C17.5933306,11.154 17.1056688,11.0653342 16.681,10.888 C16.2563312,10.7106658 15.9016681,10.4586683 15.617,10.132 C15.3323319,9.8053317 15.1176674,9.41566893 14.973,8.963 C14.8283326,8.51033107 14.756,8.01333604 14.756,7.472 C14.756,6.93066396 14.8259993,6.42433569 14.966,5.953 C15.1060007,5.48166431 15.3183319,5.07100175 15.603,4.721 C15.8876681,4.37099825 16.2446645,4.09566767 16.674,3.895 C17.1033355,3.69433233 17.6026638,3.594 18.172,3.594 C18.5826687,3.594 18.9676649,3.64299951 19.327,3.741 C19.6863351,3.83900049 20.0036653,3.99066564 20.279,4.196 C20.5543347,4.40133436 20.7806658,4.66033177 20.958,4.973 C21.1353342,5.28566823 21.2473331,5.65666452 21.294,6.086 L20.062,6.086 Z M22.666,1.004 L23.856,1.004 L23.856,4.826 L23.884,4.826 C23.9773338,4.60199888 24.1079992,4.41300077 24.276,4.259 C24.4440008,4.10499923 24.632999,3.97900049 24.843,3.881 C25.0530011,3.78299951 25.2723322,3.7106669 25.501,3.664 C25.7296678,3.6173331 25.9513323,3.594 26.166,3.594 C26.6420024,3.594 27.0386651,3.65933268 27.356,3.79 C27.6733349,3.92066732 27.929999,4.1026655 28.126,4.336 C28.322001,4.5693345 28.4596663,4.84699839 28.539,5.169 C28.6183337,5.49100161 28.658,5.84799804 28.658,6.24 L28.658,11 L27.468,11 L27.468,6.1 C27.468,5.65199776 27.3373346,5.29733464 27.076,5.036 C26.8146654,4.77466536 26.4553356,4.644 25.998,4.644 C25.6339982,4.644 25.3190013,4.69999944 25.053,4.812 C24.7869987,4.92400056 24.5653342,5.08266564 24.388,5.288 C24.2106658,5.49333436 24.0776671,5.73366529 23.989,6.009 C23.9003329,6.28433471 23.856,6.5853317 23.856,6.912 L23.856,11 L22.666,11 L22.666,1.004 Z M35.476,6.688 C35.4573332,6.4079986 35.3943339,6.14200126 35.287,5.89 C35.1796661,5.63799874 35.0350009,5.42100091 34.853,5.239 C34.6709991,5.05699909 34.4563346,4.91233387 34.209,4.805 C33.9616654,4.69766613 33.6886682,4.644 33.39,4.644 C33.0819985,4.644 32.8043346,4.69766613 32.557,4.805 C32.3096654,4.91233387 32.0973342,5.0593324 31.92,5.246 C31.7426658,5.4326676 31.6026672,5.64966543 31.5,5.897 C31.3973328,6.14433457 31.3366668,6.4079986 31.318,6.688 L35.476,6.688 Z M36.624,8.704 C36.4653325,9.51600406 36.115336,10.1273313 35.574,10.538 C35.032664,10.9486687 34.3513374,11.154 33.53,11.154 C32.9513304,11.154 32.4496688,11.0606676 32.025,10.874 C31.6003312,10.6873324 31.2433348,10.4260017 30.954,10.09 C30.6646652,9.75399832 30.4476674,9.352669 30.303,8.886 C30.1583326,8.419331 30.0766668,7.91066942 30.058,7.36 C30.058,6.80933058 30.1419992,6.30533562 30.31,5.848 C30.4780008,5.39066438 30.7136652,4.99400168 31.017,4.658 C31.3203349,4.32199832 31.6796646,4.0606676 32.095,3.874 C32.5103354,3.6873324 32.9653309,3.594 33.46,3.594 C34.1040032,3.594 34.6383312,3.72699867 35.063,3.993 C35.4876688,4.25900133 35.8283321,4.59733128 36.085,5.008 C36.341668,5.41866872 36.5189995,5.86666424 36.617,6.352 C36.7150005,6.83733576 36.7546668,7.29933114 36.736,7.738 L31.318,7.738 C31.3086666,8.05533492 31.3459996,8.35633191 31.43,8.641 C31.5140004,8.92566809 31.6493324,9.17766557 31.836,9.397 C32.0226676,9.61633443 32.2606652,9.79133268 32.55,9.922 C32.8393348,10.0526673 33.179998,10.118 33.572,10.118 C34.0760025,10.118 34.4889984,10.0013345 34.811,9.768 C35.1330016,9.5346655 35.3453328,9.18000238 35.448,8.704 L36.624,8.704 Z M37.926,3.762 L39.046,3.762 L39.046,5.288 L39.074,5.288 C39.3633348,4.69999706 39.7179979,4.2660014 40.138,3.986 C40.5580021,3.7059986 41.0899968,3.57533324 41.734,3.594 L41.734,4.854 C41.2579976,4.854 40.8520017,4.91933268 40.516,5.05 C40.1799983,5.18066732 39.9093344,5.37199874 39.704,5.624 C39.4986656,5.87600126 39.3493338,6.18166487 39.256,6.541 C39.1626662,6.90033513 39.116,7.313331 39.116,7.78 L39.116,11 L37.926,11 L37.926,3.762 Z" id="fischer"></path>
            <path d="M45.486,7.136 L48.076,7.136 L46.816,3.468 L46.788,3.468 L45.486,7.136 Z M45.696,1.004 L47.95,1.004 L51.688,11 L49.406,11 L48.65,8.774 L44.912,8.774 L44.128,11 L41.916,11 L45.696,1.004 Z M56,9.698 C56.3266683,9.698 56.5996656,9.63266732 56.819,9.502 C57.0383344,9.37133268 57.215666,9.20100105 57.351,8.991 C57.486334,8.78099895 57.5819997,8.5360014 57.638,8.256 C57.6940003,7.9759986 57.722,7.69133478 57.722,7.402 C57.722,7.11266522 57.691667,6.8280014 57.631,6.548 C57.570333,6.2679986 57.4700007,6.01833443 57.33,5.799 C57.1899993,5.57966557 57.0103344,5.40233401 56.791,5.267 C56.5716656,5.13166599 56.3033349,5.064 55.986,5.064 C55.6593317,5.064 55.3863344,5.13166599 55.167,5.267 C54.9476656,5.40233401 54.770334,5.57733226 54.635,5.792 C54.499666,6.00666774 54.4040003,6.2539986 54.348,6.534 C54.2919997,6.8140014 54.264,7.10333184 54.264,7.402 C54.264,7.69133478 54.294333,7.9759986 54.355,8.256 C54.415667,8.5360014 54.513666,8.78099895 54.649,8.991 C54.784334,9.20100105 54.9639989,9.37133268 55.188,9.502 C55.4120011,9.63266732 55.6826651,9.698 56,9.698 Z M52.346,3.762 L54.236,3.762 L54.236,4.686 L54.264,4.686 C54.5066679,4.29399804 54.8146648,4.00933422 55.188,3.832 C55.5613352,3.65466578 55.9719978,3.566 56.42,3.566 C56.9893362,3.566 57.4793313,3.67333226 57.89,3.888 C58.3006687,4.10266774 58.641332,4.38733156 58.912,4.742 C59.182668,5.09666844 59.3833327,5.50966431 59.514,5.981 C59.6446673,6.45233569 59.71,6.9446641 59.71,7.458 C59.71,7.94333576 59.6446673,8.40999776 59.514,8.858 C59.3833327,9.30600224 59.1850013,9.70266494 58.919,10.048 C58.6529987,10.3933351 58.3216687,10.6686656 57.925,10.874 C57.5283314,11.0793344 57.0640027,11.182 56.532,11.182 C56.0839978,11.182 55.6710019,11.0910009 55.293,10.909 C54.9149981,10.7269991 54.6046679,10.4586684 54.362,10.104 L54.334,10.104 L54.334,13.534 L52.346,13.534 L52.346,3.762 Z M64.554,9.698 C64.8806683,9.698 65.1536656,9.63266732 65.373,9.502 C65.5923344,9.37133268 65.769666,9.20100105 65.905,8.991 C66.040334,8.78099895 66.1359997,8.5360014 66.192,8.256 C66.2480003,7.9759986 66.276,7.69133478 66.276,7.402 C66.276,7.11266522 66.245667,6.8280014 66.185,6.548 C66.124333,6.2679986 66.0240007,6.01833443 65.884,5.799 C65.7439993,5.57966557 65.5643344,5.40233401 65.345,5.267 C65.1256656,5.13166599 64.8573349,5.064 64.54,5.064 C64.2133317,5.064 63.9403344,5.13166599 63.721,5.267 C63.5016656,5.40233401 63.324334,5.57733226 63.189,5.792 C63.053666,6.00666774 62.9580003,6.2539986 62.902,6.534 C62.8459997,6.8140014 62.818,7.10333184 62.818,7.402 C62.818,7.69133478 62.848333,7.9759986 62.909,8.256 C62.969667,8.5360014 63.067666,8.78099895 63.203,8.991 C63.338334,9.20100105 63.5179989,9.37133268 63.742,9.502 C63.9660011,9.63266732 64.2366651,9.698 64.554,9.698 Z M60.9,3.762 L62.79,3.762 L62.79,4.686 L62.818,4.686 C63.0606679,4.29399804 63.3686648,4.00933422 63.742,3.832 C64.1153352,3.65466578 64.5259978,3.566 64.974,3.566 C65.5433362,3.566 66.0333313,3.67333226 66.444,3.888 C66.8546687,4.10266774 67.195332,4.38733156 67.466,4.742 C67.736668,5.09666844 67.9373327,5.50966431 68.068,5.981 C68.1986673,6.45233569 68.264,6.9446641 68.264,7.458 C68.264,7.94333576 68.1986673,8.40999776 68.068,8.858 C67.9373327,9.30600224 67.7390013,9.70266494 67.473,10.048 C67.2069987,10.3933351 66.8756687,10.6686656 66.479,10.874 C66.0823314,11.0793344 65.6180027,11.182 65.086,11.182 C64.6379978,11.182 64.2250019,11.0910009 63.847,10.909 C63.4689981,10.7269991 63.1586679,10.4586684 62.916,10.104 L62.888,10.104 L62.888,13.534 L60.9,13.534 L60.9,3.762 Z M74.326,6.604 C74.2326662,6.09999748 74.0670012,5.71733464 73.829,5.456 C73.5909988,5.19466536 73.2293358,5.064 72.744,5.064 C72.4266651,5.064 72.1630011,5.11766613 71.953,5.225 C71.742999,5.33233387 71.5750006,5.46533254 71.449,5.624 C71.3229994,5.78266746 71.2343336,5.95066578 71.183,6.128 C71.1316664,6.30533422 71.1013334,6.4639993 71.092,6.604 L74.326,6.604 Z M71.092,7.864 C71.1200001,8.50800322 71.2833318,8.97466522 71.582,9.264 C71.8806682,9.55333478 72.3099972,9.698 72.87,9.698 C73.2713353,9.698 73.6166652,9.59766767 73.906,9.397 C74.1953348,9.19633233 74.3726663,8.98400112 74.438,8.76 L76.188,8.76 C75.9079986,9.62800434 75.4786696,10.2486648 74.9,10.622 C74.3213304,10.9953352 73.6213374,11.182 72.8,11.182 C72.2306638,11.182 71.7173356,11.0910009 71.26,10.909 C70.8026644,10.7269991 70.4153349,10.4680017 70.098,10.132 C69.7806651,9.79599832 69.5356675,9.394669 69.363,8.928 C69.1903325,8.461331 69.104,7.9480028 69.104,7.388 C69.104,6.84666396 69.1926658,6.342669 69.37,5.876 C69.5473342,5.409331 69.7993317,5.00566837 70.126,4.665 C70.4526683,4.32433163 70.8423311,4.05600098 71.295,3.86 C71.7476689,3.66399902 72.2493306,3.566 72.8,3.566 C73.4160031,3.566 73.9526644,3.68499881 74.41,3.923 C74.8673356,4.16100119 75.2429985,4.48066466 75.537,4.882 C75.8310015,5.28333534 76.0433327,5.7406641 76.174,6.254 C76.3046673,6.7673359 76.3513335,7.3039972 76.314,7.864 L71.092,7.864 Z M77.546,1.004 L79.534,1.004 L79.534,11 L77.546,11 L77.546,1.004 Z M83.622,3.762 L85.078,3.762 L85.078,5.092 L83.622,5.092 L83.622,8.676 C83.622,9.01200168 83.6779994,9.23599944 83.79,9.348 C83.9020006,9.46000056 84.1259983,9.516 84.462,9.516 C84.5740006,9.516 84.6813328,9.51133338 84.784,9.502 C84.8866672,9.49266662 84.9846662,9.47866676 85.078,9.46 L85.078,11 C84.9099992,11.0280001 84.7233344,11.0466666 84.518,11.056 C84.3126656,11.0653334 84.112001,11.07 83.916,11.07 C83.6079985,11.07 83.3163347,11.0490002 83.041,11.007 C82.7656653,10.9649998 82.5230011,10.8833339 82.313,10.762 C82.102999,10.6406661 81.9373339,10.4680011 81.816,10.244 C81.6946661,10.0199989 81.634,9.72600182 81.634,9.362 L81.634,5.092 L80.43,5.092 L80.43,3.762 L81.634,3.762 L81.634,1.592 L83.622,1.592 L83.622,3.762 Z" id="Appelt"></path>
        </g>
    </g>
</svg>