<?xml version="1.0" encoding="UTF-8"?>
<svg width="119px" height="17px" viewBox="0 0 119 17" version="1.1" xmlns="http://www.w3.org/2000/svg" xmlns:xlink="http://www.w3.org/1999/xlink">
    <!-- Generator: Sketch 49.3 (51167) - http://www.bohemiancoding.com/sketch -->
    <title>Logos / handelsblatt</title>
    <desc>Created with Sketch.</desc>
    <defs></defs>
    <g id="Logos-/-handelsblatt" stroke="none" stroke-width="1" fill="none" fill-rule="evenodd">
        <path d="M23.2451055,9.97064898 L23.2451055,13.9457771 C22.5684505,14.5967804 21.8890525,14.9452265 21.2337346,14.9452265 C20.2308331,14.9452265 19.5036601,14.2015815 19.5036601,13.155615 C19.5036601,12.0160652 20.205418,11.3194862 22.3339836,10.390479 L23.2451055,9.97064898 Z M115.437485,1.56416484 C114.625986,4.19665276 113.370969,5.4295505 111.485498,5.4295505 L109.294256,5.4295505 L109.294256,1.56416484 L108.75872,1.56416484 C108.036491,3.77682273 106.783982,5.15154648 104.968015,5.73242096 L104.968015,6.28866435 L106.667965,6.28866435 L106.667965,13.586427 C106.667965,15.8262265 107.362347,16.7099717 109.131484,16.7099717 C110.458751,16.7099717 111.32053,16.1044659 112.066607,14.6841665 L112.15972,14.5438308 L111.741381,14.3101474 C111.227183,14.9180852 110.877089,15.1505135 110.434589,15.1505135 C109.59791,15.1505135 109.294256,14.5672071 109.294256,12.9562899 L109.294256,6.28866435 L113.345786,6.28866435 L113.345786,13.586427 C113.345786,15.8262265 114.045111,16.7099717 115.809308,16.7099717 C117.25471,16.7099717 118.231253,15.9665619 119,14.3101474 L118.605587,14.1007817 C118.093899,14.8245021 117.629041,15.1505135 117.1161,15.1505135 C116.276911,15.1505135 115.971842,14.5672071 115.971842,12.9562899 L115.971842,6.28866435 L118.605587,6.28866435 L118.605587,5.4295505 L115.971842,5.4295505 L115.971842,1.56416484 L115.437485,1.56416484 Z M11.7852842,8.52344349 L11.7852842,13.8203457 C11.7852842,15.5934843 11.4588008,15.9665619 9.84835623,16.0119023 L9.84835623,16.501861 L16.6028166,16.501861 L16.6028166,16.0119023 C14.9269483,15.9419306 14.6683992,15.6156839 14.6683992,13.4694677 L14.6683992,2.71963864 C14.6683992,0.883745383 14.9508734,0.580874705 16.6028166,0.487291416 L16.6028166,0 L9.84835623,0 L9.84835623,0.487291416 C11.4336204,0.558753453 11.7852842,0.906886114 11.7852842,2.48846556 L11.7852842,7.50956014 L4.81878769,7.50956014 L4.81878769,2.60416965 C4.81878769,0.930576102 5.19186604,0.534122356 6.75195207,0.487291416 L6.75195207,0 L0,0 L0,0.487291416 C1.56141878,0.534122356 1.93316438,0.952697133 1.93316438,2.60416965 L1.93316438,13.492844 C1.93316438,15.6156839 1.65343311,15.9665619 0,16.0119023 L0,16.501861 L6.75195207,16.501861 L6.75195207,16.0119023 C5.14409332,16.05889 4.81878769,15.6858909 4.81878769,13.7957144 L4.81878769,8.52344349 L11.7852842,8.52344349 Z M23.2453402,15.2896725 C23.2453402,16.3627806 23.3864622,16.501861 24.4776898,16.501861 L27.2854209,16.501861 L27.2854209,16.05889 C26.1259469,16.0355139 25.8716329,15.6392955 25.8716329,13.7021314 L25.8716329,8.73273088 C25.8716329,5.97732192 24.9189348,5.06918055 22.0291517,5.06918055 C19.3426157,5.06918055 17.3678774,6.27870201 17.3678774,7.92295782 C17.3678774,8.6638575 17.8794875,9.1769569 18.5977165,9.1769569 C19.4092925,9.1769569 19.7823708,8.68597853 19.7622115,7.67060481 C19.7153797,6.39440633 20.2512293,5.7914106 21.4219209,5.7914106 C22.7311443,5.7914106 23.2453402,6.51136569 23.2453402,8.38561814 L23.2453402,9.1769569 C18.4125897,10.8790255 16.9052177,12.0235172 16.9052177,13.9358147 C16.9052177,15.5997599 18.0873616,16.8378347 19.6915343,16.8378347 C20.8131204,16.8378347 21.3285716,16.534964 23.2453402,14.7826915 L23.2453402,15.2896725 Z M31.7614888,8.36843887 C32.716932,7.29776268 33.4893649,6.83267067 34.3285543,6.83267067 C35.4954824,6.83267067 35.8698137,7.53175976 35.8698137,9.55230931 L35.8698137,13.852194 C35.8698137,15.5295529 35.6114993,15.9491476 34.4910909,16.0427306 L34.4910909,16.501861 L39.926288,16.501861 L39.926288,16.05889 C38.8236082,16.05889 38.4935959,15.5691669 38.4935959,13.959191 L38.4935959,9.34074697 C38.4935959,6.3921316 37.5874928,5.06549383 35.542312,5.06549383 C34.2126149,5.06549383 33.1867313,5.71751687 31.7614888,7.50956014 L31.7614888,5.09012514 L31.2513708,5.09012514 L27.56515,6.41535092 L27.7050145,6.81054964 C27.9344626,6.74159767 28.0516572,6.71696635 28.1664211,6.71696635 C28.9072424,6.71696635 29.140454,7.20668968 29.140454,8.6638575 L29.140454,14.0761504 C29.140454,15.5691669 28.8152281,16.0355139 27.7276069,16.05889 L27.7276069,16.501861 L33.1616285,16.501861 L33.1616285,16.05889 C32.0641246,16.05889 31.7614888,15.5691669 31.7614888,13.8190907 L31.7614888,8.36843887 Z M50.7878214,0 L50.2534637,0 L46.5346893,1.39417753 L46.672044,1.78937624 L46.8373247,1.74262389 C46.9997813,1.67367214 47.0702234,1.67367214 47.2327587,1.67367214 C47.9524785,1.67367214 48.1617658,2.11413284 48.1617658,3.64888134 L48.1617658,5.9735566 C47.253154,5.27572255 46.672044,5.06549383 45.6954999,5.06549383 C42.8323093,5.06549383 40.6497749,7.74324373 40.6497749,11.2579864 C40.6497749,14.5634418 42.3698846,16.840345 44.8802358,16.840345 C46.0887376,16.840345 46.5586146,16.6076813 48.1617658,15.2378996 C48.1617658,16.4082777 48.2787252,16.501861 49.3916826,16.501861 L52.2105525,16.501861 L52.2105525,16.05889 C50.9744387,16.05889 50.7878214,15.7105222 50.7878214,13.4756647 L50.7878214,0 Z M48.1617658,14.3123438 C47.1862417,14.9598955 46.8587397,15.0999958 46.3002213,15.0999958 C44.6495332,15.0999958 43.4826067,13.1237669 43.4826067,10.2413577 C43.4826067,7.58823911 44.3458781,5.95018032 45.7194252,5.95018032 C47.3713684,5.95018032 48.1617658,7.14401309 48.1617658,9.61396598 L48.1617658,14.3123438 Z M61.7678039,12.4234226 C60.9524614,13.9323631 60.0200026,14.6052521 58.6691258,14.6052521 C56.5694266,14.6052521 55.1959581,12.7251166 54.9841605,9.61396598 L62.1634732,9.61396598 C62.0009382,6.65523131 60.5090197,5.06792552 57.9444641,5.06792552 C54.9149732,5.06792552 52.768757,7.5907494 52.768757,11.1694237 C52.768757,14.5584998 54.6805838,16.840345 57.5701314,16.840345 C59.9266547,16.840345 61.3267941,15.5604596 62.1634732,12.5859576 L61.7678039,12.4234226 Z M55.0083211,8.78175818 C55.2638902,6.88789499 56.009967,6.00069799 57.3143268,6.00069799 C58.5720911,6.00069799 59.2738473,6.93598074 59.3923756,8.78175818 L55.0083211,8.78175818 Z M66.7706997,0 L66.2364206,0 L62.4685403,1.39566812 L62.5870685,1.78937624 C62.9560671,1.72042449 63.0745954,1.69830346 63.2397975,1.69830346 C63.8913499,1.69830346 64.1444088,2.25454685 64.1444088,3.62801534 L64.1444088,14.1869127 C64.1444088,15.5604596 63.7954918,16.0489276 62.7244233,16.0489276 L62.7244233,16.501861 L68.2061388,16.501861 L68.2061388,16.05889 C67.1248724,16.05889 66.7706997,15.5923076 66.7706997,14.1943647 L66.7706997,0 Z M75.3045762,5.20582924 C75.0955241,5.36805058 74.9544041,5.43700255 74.7451165,5.43700255 C74.5587347,5.43700255 74.4402848,5.41488152 73.8126577,5.25234648 C73.3223856,5.11201084 72.9985703,5.06549383 72.6267479,5.06549383 C70.4681376,5.06549383 69.0087732,6.38946435 69.0087732,8.39432522 C69.0087732,9.83776561 69.4460179,10.421072 71.6489488,11.8413712 C74.1605551,13.4731546 74.2095824,13.5199853 74.2095824,14.4049074 C74.2021301,15.2797101 73.478645,15.9319683 72.5260263,15.9319683 C70.91809,15.9319683 70.03709,14.9536985 69.4537053,12.5797606 L69.0605462,12.5797606 L69.0605462,16.6310576 L69.5468179,16.6310576 C69.7787753,16.490722 69.9186403,16.4438912 70.0814107,16.4438912 C70.1996253,16.4438912 70.3155647,16.4672673 70.8272523,16.5842267 C71.6174144,16.7935926 71.9916688,16.840345 72.5033562,16.840345 C74.8397195,16.840345 76.5421803,15.3732932 76.5421803,13.3477233 C76.5421803,11.8117196 75.8655262,11.0206161 73.256885,9.48484793 C71.4673518,8.41519122 70.930484,7.87863717 70.930484,7.15742704 C70.930484,6.41307597 71.5832915,5.92429397 72.5827409,5.92429397 C73.99802,5.92429397 74.7451165,6.71571132 75.2604908,8.85573051 L75.7104432,8.85573051 L75.7104432,5.20582924 L75.3045762,5.20582924 Z M80.9351774,0 L80.4489057,0 L76.6506679,1.3710368 L76.8157133,1.78937624 C76.9781697,1.72042449 77.143215,1.69579318 77.3059854,1.69579318 C78.0809295,1.69579318 78.3367341,2.16096356 78.3367341,3.62550506 L78.3367341,15.5357499 C80.1236003,16.512843 81.1469751,16.8378347 82.5229539,16.8378347 C85.8562566,16.8378347 88.3172659,14.1401604 88.3172659,10.465628 C88.3172659,7.35079042 86.6464187,5.06792552 84.3640247,5.06792552 C83.0345629,5.06792552 82.0341719,5.69680761 80.9351774,7.23383106 L80.9351774,0 Z M80.9351774,8.07074551 C81.6130868,7.39613077 82.1740368,7.11812674 82.8733613,7.11812674 C84.551897,7.11812674 85.6937215,8.90750321 85.6937215,11.4894735 C85.6937215,14.0933294 84.6199074,15.9073372 83.0345629,15.9073372 C82.3364935,15.9073372 81.7743668,15.6515326 80.9351774,14.9303224 L80.9351774,8.07074551 Z M92.9195522,0 L92.3827617,0 L88.6199017,1.39566812 L88.7356065,1.78937624 C89.1099401,1.72042449 89.223369,1.69830346 89.3859034,1.69830346 C90.0398886,1.69830346 90.2932595,2.25454685 90.2932595,3.62801534 L90.2932595,14.1869127 C90.2932595,15.5579495 89.9468537,16.0452409 88.8782162,16.0452409 L88.8782162,16.501861 L94.3522443,16.501861 L94.3522443,16.05889 C93.272469,16.05889 92.9195522,15.5934843 92.9195522,14.1966397 L92.9195522,0 Z M101.208998,15.2909275 C101.208998,16.3627806 101.350118,16.501861 102.44268,16.501861 L105.258098,16.501861 L105.258098,16.05889 C104.069757,16.0355139 103.835288,15.6392955 103.835288,13.706838 L103.835288,8.74747823 C103.835288,5.97857696 102.882435,5.06918055 99.9942994,5.06918055 C97.3062734,5.06918055 95.3315351,6.2812123 95.3315351,7.93417541 C95.3315351,8.67852648 95.844478,9.19044922 96.5601965,9.19044922 C97.3717725,9.19044922 97.7460286,8.70064751 97.7246915,7.67680183 C97.7020216,6.37354034 98.1947255,5.7914106 99.3855764,5.7914106 C100.69488,5.7914106 101.208998,6.53725204 101.208998,8.3992672 L101.208998,9.19044922 C96.3536551,10.9136191 94.868953,12.0309695 94.868953,13.9408351 C94.868953,15.5997599 96.0535298,16.8378347 97.6551898,16.8378347 C98.7781087,16.8378347 99.3388243,16.5105683 101.208998,14.7826915 L101.208998,15.2909275 Z M101.208998,9.96217701 L101.208998,13.9432668 C100.555013,14.5956037 99.8529427,14.9452265 99.1989598,14.9452265 C98.1947255,14.9452265 97.4688078,14.2004048 97.4688078,13.151928 C97.4688078,12.0111232 98.1693879,11.3122694 100.296698,10.3805167 L101.208998,9.96217701 Z" id="logo" fill="#373E4B" fill-rule="nonzero"></path>
    </g>
</svg>