<?xml version="1.0" encoding="UTF-8"?>
<svg width="148px" height="26px" viewBox="0 0 148 26" version="1.1" xmlns="http://www.w3.org/2000/svg" xmlns:xlink="http://www.w3.org/1999/xlink">
    <!-- Generator: Sketch 49.3 (51167) - http://www.bohemiancoding.com/sketch -->
    <title>Logos / Strabag White Copy</title>
    <desc>Created with Sketch.</desc>
    <defs></defs>
    <g id="Logos-/-Strabag-White-Copy" stroke="none" stroke-width="1" fill="none" fill-rule="evenodd">
        <g id="Strabag_logo" fill="#373E4B" fill-rule="nonzero">
            <path d="M16.921,3.054 L14.412,7.712 C13.828,7.245 13.179,6.875 12.465,6.601 C11.753,6.327 11.007,6.187 10.231,6.18 C9.611,6.18 9.016,6.341 8.445,6.662 C7.874,6.983 7.567,7.467 7.527,8.11 C7.542,8.556 7.703,8.921 8.01,9.206 C8.318,9.491 8.686,9.721 9.115,9.894 C9.543,10.068 9.947,10.208 10.326,10.316 L11.934,10.776 C13.662,11.221 15.08,11.924 16.193,12.886 C17.304,13.848 17.88,15.248 17.918,17.088 C17.934,18.255 17.758,19.383 17.387,20.474 C17.018,21.564 16.358,22.508 15.409,23.308 C14.444,24.069 13.365,24.622 12.172,24.97 C10.979,25.318 9.763,25.489 8.525,25.484 C6.988,25.477 5.495,25.245 4.046,24.787 C2.596,24.327 1.248,23.682 0,22.849 L2.702,18.007 C3.49,18.683 4.35,19.246 5.283,19.696 C6.217,20.145 7.221,20.38 8.299,20.396 C9.074,20.401 9.769,20.215 10.383,19.841 C10.996,19.466 11.321,18.874 11.356,18.068 C11.335,17.511 11.103,17.061 10.664,16.717 C10.226,16.373 9.711,16.102 9.122,15.904 C8.531,15.707 8,15.55 7.527,15.433 C6.201,15.098 5.047,14.706 4.067,14.259 C3.088,13.811 2.328,13.174 1.787,12.349 C1.246,11.524 0.973,10.376 0.965,8.906 C0.979,7.335 1.342,5.97 2.055,4.813 C2.767,3.656 3.749,2.758 5.002,2.123 C6.254,1.486 7.696,1.163 9.329,1.154 C10.58,1.161 11.882,1.332 13.233,1.668 C14.586,2.004 15.814,2.466 16.921,3.054 Z" id="Shape"></path>
            <path d="M41.521,6.358 L41.521,12.118 L42.132,12.118 C42.834,12.13 43.517,12.066 44.181,11.93 C44.846,11.792 45.395,11.517 45.83,11.101 C46.265,10.685 46.491,10.064 46.507,9.238 C46.491,8.411 46.266,7.791 45.83,7.375 C45.394,6.959 44.846,6.684 44.181,6.547 C43.517,6.41 42.834,6.347 42.132,6.359 L41.521,6.359 L41.521,6.358 Z M47.762,15.397 L55.386,24.864 L47.536,24.864 L41.585,15.979 L41.521,15.979 L41.521,24.864 L35.215,24.864 L35.215,1.76197311 L44.641,1.762 C46.254,1.759 47.693,2.007 48.956,2.509 C50.22,3.01 51.218,3.786 51.949,4.835 C52.68,5.885 53.053,7.23 53.069,8.871 C53.063,10.5 52.608,11.913 51.706,13.11 C50.803,14.308 49.488,15.069 47.762,15.397 Z M29.121,6.854 L29.121,24.87 L22.816,24.87 L22.816,6.854 L17.605,6.854 L17.605,1.768 L34.332,1.768 L34.332,6.854 L29.121,6.854 Z" id="Shape"></path>
            <path d="M85.702,6.325 L85.702,10.799 L86.41,10.799 C87.283,10.828 88.061,10.7 88.742,10.415 C89.423,10.131 89.782,9.513 89.819,8.561 C89.806,7.869 89.615,7.362 89.248,7.041 C88.881,6.722 88.418,6.519 87.861,6.435 C87.303,6.35 86.734,6.313 86.152,6.325 L85.702,6.325 Z M89.112,24.832 L79.396,24.832 L79.396,1.729 L88.404,1.729 C90.591,1.703 92.33,2.153 93.624,3.077 C94.917,4.002 95.579,5.554 95.61,7.734 C95.621,8.783 95.422,9.711 95.01,10.519 C94.599,11.327 93.909,11.971 92.939,12.453 L92.939,12.515 C94.667,12.746 95.925,13.378 96.719,14.411 C97.513,15.444 97.905,16.772 97.894,18.398 C97.868,20.002 97.437,21.275 96.603,22.218 C95.769,23.16 94.689,23.835 93.362,24.239 C92.035,24.645 90.618,24.842 89.112,24.832 Z M85.702,15.272 L85.702,20.236 L86.506,20.236 C87.155,20.253 87.865,20.229 88.637,20.165 C89.408,20.102 90.075,19.896 90.639,19.551 C91.202,19.204 91.497,18.615 91.525,17.785 C91.5,16.876 91.205,16.245 90.639,15.894 C90.076,15.541 89.397,15.345 88.604,15.303 C87.81,15.261 87.058,15.251 86.346,15.272 L85.702,15.272 Z M68.875,16.26 L66.301,8.906 L66.237,8.906 L63.632,16.26 L68.875,16.26 Z M70.579,20.856 L61.893,20.856 L60.22,24.87 L53.529,24.87 L62.858,1.767 L69.743,1.767 L78.879,24.87 L72.155,24.87 L70.579,20.856 Z" id="Shape"></path>
            <path d="M112.955,16.26 L110.382,8.906 L110.318,8.906 L107.713,16.26 L112.955,16.26 Z M114.66,20.856 L105.974,20.856 L104.301,24.87 L97.61,24.87 L106.939,1.767 L113.824,1.767 L122.96,24.87 L116.236,24.87 L114.66,20.856 Z" id="Shape"></path>
            <path d="M135.188,11.97 L147.702,11.97 C147.706,13.645 147.555,15.228 147.248,16.719 C146.941,18.21 146.268,19.671 145.226,21.101 C144.021,22.67 142.562,23.821 140.851,24.552 C139.139,25.282 137.262,25.644 135.221,25.635 C132.661,25.619 130.414,25.104 128.48,24.088 C126.545,23.071 125.035,21.652 123.948,19.829 C122.861,18.007 122.308,15.877 122.289,13.44 C122.308,10.923 122.865,8.736 123.963,6.878 C125.063,5.021 126.595,3.58 128.562,2.557 C130.529,1.534 132.824,1.015 135.448,0.999 C137.954,0.999 140.138,1.536 142.002,2.611 C143.865,3.687 145.326,5.305 146.386,7.465 L140.402,9.855 C139.963,8.737 139.298,7.848 138.408,7.189 C137.518,6.531 136.435,6.194 135.159,6.178 C133.775,6.202 132.615,6.573 131.68,7.285 C130.744,7.999 130.039,8.908 129.566,10.014 C129.092,11.118 128.855,12.271 128.853,13.471 C128.856,14.688 129.102,15.844 129.591,16.938 C130.08,18.033 130.8,18.928 131.751,19.624 C132.701,20.319 133.869,20.68 135.255,20.702 C136.648,20.702 137.804,20.366 138.726,19.695 C139.647,19.024 140.185,18.021 140.338,16.688 L135.191,16.688 L135.191,11.97 L135.188,11.97 Z" id="Shape"></path>
        </g>
    </g>
</svg>