<?xml version="1.0" encoding="UTF-8"?>
<svg width="109px" height="27px" viewBox="0 0 109 27" version="1.1" xmlns="http://www.w3.org/2000/svg" xmlns:xlink="http://www.w3.org/1999/xlink">
    <!-- Generator: Sketch 49.3 (51167) - http://www.bohemiancoding.com/sketch -->
    <title>Logos / total</title>
    <desc>Created with Sketch.</desc>
    <defs></defs>
    <g id="Logos-/-total" stroke="none" stroke-width="1" fill="none" fill-rule="evenodd">
        <g id="total_logo_noir" fill="#373E4B" fill-rule="nonzero">
            <path d="M55,10 C49.9183673,10 47,12.1911263 47,16.0204778 C47,19.8088737 49.9183673,22 55,22 C60.0816327,22 63,19.8088737 63,16.0204778 C63,12.1911263 60.0816327,10 55,10 Z M55,19.2354949 C52.2244898,19.2354949 50.8163265,18.1706485 50.8163265,16.0409556 C50.8163265,13.890785 52.2244898,12.8054608 55,12.8054608 C57.7755102,12.8054608 59.2040816,13.890785 59.2040816,16.0409556 C59.2040816,18.1501706 57.7755102,19.2354949 55,19.2354949 Z" id="Shape"></path>
            <path d="M78,10 L64,10 L64,12.6642984 L68.8588235,12.6642984 L68.8588235,20.9342806 C68.8588235,21.722913 70.0323529,22 71,22 C71.9882353,22 73.1411765,21.722913 73.1411765,20.9342806 L73.1411765,12.6642984 L78,12.6642984 L78,10 Z" id="Shape"></path>
            <path d="M103.142857,19.2158705 C101.959184,19.2158705 101.163265,19.0044973 100.714286,18.6240256 C100.142857,18.1167299 100.081633,17.3769238 100.061224,16.8062163 L100.061224,11.0145912 C100.061224,10.2325105 98.9591837,10 98.0408163,10 C97.1020408,10 96,10.2536478 96,11.0145912 L96,16.6159804 C96,18.7508495 96.6530612,20.251599 97.9795918,21.0759544 C99.6122449,22.048271 102.571429,22.0271337 105.428571,21.9848591 L109,21.9848591 L109,19.2158705 L103.142857,19.2158705 Z" id="Shape"></path>
            <path d="M48,7 L31,7 L31,9.82016349 L36.8521212,9.82016349 L36.8521212,18.3623978 C36.8521212,20.3855586 38.5624242,21.7547684 41.4678788,22 L41.4678788,9.82016349 L47.9793939,9.82016349 L47.9793939,7 L48,7 Z" id="Shape"></path>
            <path d="M86.6971831,10.3374341 C86.3380282,10.0843585 85.9788732,10.0210896 85.5,10 C85.0011737,10.0210896 84.6220657,10.0632689 84.2828638,10.3374341 C83.2053991,11.1599297 78.0176056,16.685413 77.0997653,21.5149385 L77,22 L80.6713615,22 L80.7312207,21.6625659 C80.8908451,20.9876977 81.1302817,20.228471 81.4495305,19.4692443 L89.5305164,19.4692443 C89.8497653,20.228471 90.0892019,20.9666081 90.2288732,21.6625659 L90.3086854,22 L94,22 L93.9002347,21.5149385 C92.9624413,16.685413 87.7746479,11.1599297 86.6971831,10.3374341 Z M82.7464789,16.9806678 C83.5246479,15.7363796 84.4624413,14.5342707 85.5,13.4586995 C86.5176056,14.5342707 87.4553991,15.7574692 88.2335681,16.9806678 L82.7464789,16.9806678 Z" id="Shape"></path>
            <path d="M24.6930407,15 C24.1560261,15.4375 23.4789207,15.8541667 22.73177,16.2083333 C22.5216338,16.6875 22.3114977,17.1666667 22.078013,17.625 C21.4709531,18.8541667 20.7704992,19.9791667 20,21 C20.3969238,20.9583333 20.7704992,20.9166667 21.1440746,20.8333333 C22.8251638,20.4375 23.4088753,19.9166667 23.595663,19.7708333 C24.1093292,19.4166667 25.6503276,17.7708333 24.6930407,15 Z" id="Shape"></path>
            <path d="M14.691358,17.8543307 C12.1193416,17.6771654 7.38683128,16.3976378 5,15 C7.48971193,17.2834646 10.3909465,19.0354331 13.6831276,20 C14.1769547,19.3110236 14.6090535,18.5826772 15,17.8937008 C14.8971193,17.8740157 14.7942387,17.8740157 14.691358,17.8543307 Z" id="Shape"></path>
            <path d="M16.4113597,2.04136915 C18.9518072,2.56481923 20.7900172,3.54344328 21.5335628,3.97585855 C22.0499139,4.29448034 22.545611,4.63586082 23,5 C22.3390706,3.52068458 21.3270224,2.24619744 19.9225473,1.33584949 C17.010327,-0.553122511 12.9001721,-0.348294222 11,1.38136689 C13.4165232,0.539295032 15.172117,0.948951611 16.4113597,2.04136915 Z" id="Shape"></path>
            <path d="M4,23 C5.17110266,26.3394237 9.9391635,28.2590924 15,26.059472 C12.78327,26.0994651 10.4619772,25.6995341 8.32889734,24.8796756 C6.61406844,25.0196514 4.94106464,24.3397688 4,23 Z" id="Shape"></path>
            <path d="M19.0956175,20.9923502 C19.1354582,20.9533506 19.1752988,20.8948514 19.1952191,20.8558519 C20.4701195,19.1788728 21.5657371,17.1313984 22.3027888,14.9864252 C22.5816733,14.1869352 22.8207171,13.3679454 23,12.5684554 C22.6812749,12.2174598 22.3027888,11.8664642 21.8645418,11.4959688 C20.689243,10.5599805 19.2549801,9.72149098 17.6015936,9 C17.2629482,10.9499756 16.4063745,14.0504369 15.0119522,16.9169011 C14.5139442,17.9503882 13.936255,18.9643755 13.2788845,19.880864 C13.1792829,20.0173623 13.0996016,20.1343609 13,20.2513594 C14.7928287,20.7193536 16.3864542,20.8948514 17.5219124,20.9533506 C18.0199203,20.9923502 18.5378486,21.0118499 19.0956175,20.9923502 Z" id="Shape"></path>
            <path d="M2.70671517,13.3894578 C2.78812766,13.5076273 2.97130574,13.7439662 3.19519007,14 C5.18979588,10.8882044 12.7000974,8.87932362 15,8.91871344 C10.6444322,7.5597647 6.32957064,7.83549343 3.7243712,8.91871344 C0.956346805,10.2579673 2.2385934,12.6804411 2.70671517,13.3894578 Z" id="Shape"></path>
            <path d="M21.1155043,4.04978466 C19.7974521,3.31373313 17.6277354,2.43047129 15.0321865,2.11502063 C12.3960821,1.79956997 9.3138677,2.07296054 6.23165334,3.69227392 C4.20388072,4.74377611 2.11527494,6.95193071 1,9.93819694 C1.83138677,8.50815396 3.27110532,7.56180198 6.08970925,7.14120111 C8.86775773,6.78369036 12.6799702,7.20429124 16.4110718,8.55021404 C16.471905,8.57124409 16.5327382,8.59227413 16.5935714,8.61330418 C19.0471762,9.55965615 21.0343934,10.7163086 22.5755006,12.0201713 C23.3460542,12.6931327 23.9341082,13.3660941 24.3802182,14.0180254 C24.6438286,14.4175963 24.8668836,14.8171671 25.0291054,15.237768 C25.0493832,15.2798281 25.0696609,15.3429182 25.0899386,15.3849783 C25.1102163,15.4480684 25.1304941,15.5111586 25.1507718,15.5532186 C25.8402145,17.635193 25.4549377,19.8012875 23.731331,21 C23.731331,21 23.731331,21 23.731331,21 C23.8124419,20.9579399 23.8935528,20.9158798 23.9746637,20.8527897 C23.9949414,20.8527897 23.9949414,20.8317596 24.0152191,20.8317596 C24.0354969,20.8107296 24.0557746,20.8107296 24.09633,20.7896996 C24.1368855,20.7686695 24.1571632,20.7476395 24.1977187,20.7266094 C24.1977187,20.7266094 24.2179964,20.7266094 24.2179964,20.7055794 C24.3802182,20.6004292 24.54244,20.4742489 24.6843841,20.3480686 C24.7452173,20.2849785 24.8263282,20.2218884 24.8871614,20.1377682 C25.3535491,19.6540772 25.7591036,19.0442059 26.0835472,18.3291844 C27.5840989,15.0695276 27.502988,9.81201667 23.8529973,6.08969891 C23.0824437,5.35364738 22.1902238,4.63862589 21.1155043,4.04978466 Z" id="Shape"></path>
            <path d="M17.4962757,22.8481132 C15.8106332,22.7468473 13.8203565,22.4430495 11.7488441,21.7949476 C8.5603396,20.8025415 5.18905461,19.0202612 2.48796483,16.0025367 C2.44734694,15.9620303 2.40672905,15.9215239 2.3864201,15.8810176 C2.36611115,15.8607644 2.32549326,15.820258 2.30518432,15.7797516 C2.10209486,15.5367134 1.77715173,15.1519029 1.63498911,14.9291179 C0.497688148,13.1468376 0.741395497,11.870887 1.51313543,11 C1.51313543,11 1.51313543,11 1.51313543,11 C1.47251754,11.0202532 1.4522086,11.0607596 1.41159071,11.0810127 C1.41159071,11.0810127 1.39128176,11.0810127 1.39128176,11.1012659 C1.37097281,11.1215191 1.35066387,11.1417723 1.33035492,11.1620255 C1.28973703,11.2025318 1.26942809,11.222785 1.22881019,11.2632914 C1.22881019,11.2632914 1.22881019,11.2632914 1.22881019,11.2632914 C1.14757441,11.3443041 1.08664757,11.4253169 1.00541179,11.5063296 C0.802322334,11.769621 0.619541823,12.0734188 0.477379203,12.3974698 C-0.17250706,13.8556991 -0.152198114,15.8405112 0.497688148,17.9265893 C1.35066387,20.6810224 3.62526579,22.8683664 6.44820924,24.2860893 C9.29146164,25.7038123 12.6830556,26.3114078 15.7090885,25.8455846 C15.7497064,25.8455846 15.7700153,25.8253314 15.8106332,25.8253314 C19.628715,25.2177358 22.0048617,23.0911514 23,22.2000113 C21.7002275,22.5645686 20.5832355,22.7468473 19.5474792,22.8076068 C18.8569751,22.8886196 18.1867799,22.8683664 17.4962757,22.8481132 Z" id="Shape"></path>
        </g>
    </g>
</svg>