<?xml version="1.0" encoding="UTF-8"?>
<svg width="300px" height="73px" viewBox="0 0 300 73" version="1.1" xmlns="http://www.w3.org/2000/svg" xmlns:xlink="http://www.w3.org/1999/xlink">
    <!-- Generator: Sketch 49.3 (51167) - http://www.bohemiancoding.com/sketch -->
    <title>Logos / unicef mono</title>
    <desc>Created with Sketch.</desc>
    <defs></defs>
    <g id="Logos-/-unicef-mono" stroke="none" stroke-width="1" fill="none" fill-rule="evenodd">
        <g id="Group" fill="#373E4B" fill-rule="nonzero">
            <path d="M274.81515,50.44732 C271.04573,48.38022 270.96881,45.50912 271.16981,44.45442 C271.36585,43.38242 272.10782,43.85142 272.57683,43.85142 C275.05338,43.85142 277.65896,43.11442 280.87252,39.83642 C284.49553,36.13892 285.62958,27.92012 280.07099,22.57002 C274.06573,16.79304 267.6808,17.80302 263.5739,22.99182 C262.7277,24.05392 260.67301,24.83812 258.8888,24.77362 C256.25592,24.67182 257.91357,26.75132 257.91357,27.18312 C257.91357,27.62232 257.51404,27.92262 257.2783,27.85562 C256.38496,27.59752 256.74477,28.92762 256.74477,29.32962 C256.74477,29.72672 256.37999,29.93262 256.18147,29.93262 C255.06231,29.93262 255.36505,30.93272 255.40476,31.20322 C255.43454,31.47122 255.34024,31.93272 254.96801,32.13872 C254.61812,32.33472 254.20122,33.21072 254.20122,33.87582 C254.20122,35.08182 255.30798,35.92052 257.1443,37.29532 C258.9831,38.66512 259.21636,39.96792 259.25358,40.91082 C259.28584,41.84392 259.37021,43.35272 259.78959,44.35522 C260.29086,45.55872 260.22386,47.76732 257.6803,47.86652 C254.57593,47.99312 249.04712,50.47962 248.5806,50.64582 C246.82369,51.27122 244.5134,51.49452 242.69693,51.03542 C241.7217,50.35052 240.79113,49.59862 239.91267,48.79212 C239.55285,47.54142 240.18068,46.19652 240.81843,45.29072 C241.85322,46.33052 243.39175,46.26102 244.26028,46.29822 C245.12881,46.33052 249.38213,45.65802 249.98513,45.45702 C250.58814,45.25352 250.85614,45.32302 251.22837,45.45702 C252.84384,46.04762 255.07223,46.22382 255.97551,43.11442 C256.87629,40.00262 254.73723,40.87362 254.46675,41.00762 C254.20122,41.14162 253.83396,41.10692 253.96796,40.84142 C254.36004,40.04982 253.76696,40.13662 253.43196,40.10442 C252.57087,40.01752 251.42193,40.93812 251.05467,41.27562 C250.68244,41.61312 250.3251,41.57842 250.18862,41.50892 C249.02975,40.93572 245.59782,41.76452 244.53325,39.90092 C244.63003,39.39962 243.65728,31.83842 243.15849,30.52822 C243.04931,30.25522 242.95253,29.79622 243.29249,29.29492 C244.16599,27.98462 246.56561,29.39662 247.87585,29.36442 C249.4392,29.32222 249.69232,28.66952 250.11665,28.14102 C250.53107,27.62732 250.83629,27.91522 251.05467,27.77372 C251.34004,27.58762 251.07204,27.22032 251.1713,27.02182 C251.27304,26.81832 251.38967,26.91762 251.65519,26.68432 C251.92816,26.45112 251.62045,25.94982 251.75942,25.74882 C252.14157,25.16562 253.19373,25.63222 252.56094,24.10852 C252.21353,23.27232 252.69495,22.36652 253.16643,21.76352 C253.92578,20.78832 256.84652,16.67145 251.6949,12.39332 C246.76661,8.3162 241.78622,8.64376 238.57266,12.1278 C235.36406,15.60936 236.96712,20.69402 237.3046,22.03152 C237.63713,23.37152 236.6743,24.58752 235.5601,25.11112 C234.68165,25.52552 232.67906,26.86552 231.16534,28.18322 C231.40109,17.25957 238.02921,7.66108 248.191,3.56906 C248.62526,4.115 249.10916,4.62619 249.62531,5.10512 C248.50367,5.93146 246.0296,8.14249 246.0296,8.14249 C246.0296,8.14249 246.36957,8.19212 246.68224,8.26905 C246.89813,8.32116 247.35969,8.46509 247.35969,8.46509 C247.35969,8.46509 249.5335,6.60892 250.55588,5.87439 C251.35493,6.4774 252.2185,6.98363 253.14162,7.38811 C252.65028,8.22438 251.40704,10.557 251.40704,10.557 C251.40704,10.557 251.70234,10.72326 251.95546,10.89449 C252.20609,11.06819 252.36987,11.21709 252.36987,11.21709 C252.36987,11.21709 253.72229,8.66857 254.23348,7.81493 C255.37002,8.19957 256.55866,8.41546 257.76219,8.4775 C257.76219,8.80754 257.76219,12.75562 257.76219,13.13778 C257.0897,13.12041 255.37746,13.05092 254.68264,12.97896 L254.24589,12.93677 L254.48908,13.30156 C254.67767,13.56956 254.81664,13.8326 254.94071,14.08075 L254.99283,14.18497 L255.10698,14.18994 C255.6132,14.23461 257.17408,14.2892 257.76219,14.30161 C257.76219,14.6788 257.76219,22.80082 257.76219,22.80082 L258.93843,22.80082 C258.93843,22.80082 258.93843,21.16792 258.93843,20.85282 C260.66556,20.77092 262.1098,20.65182 263.84438,20.50291 L263.91386,20.49794 L265.44248,19.14056 L264.61117,19.21748 C262.77485,19.45571 261.16683,19.56489 259.69529,19.64678 C259.69529,19.64678 259.19651,19.67408 258.93843,19.69145 C258.93843,19.30185 258.93843,14.6515 258.93843,14.30161 C261.07005,14.25446 263.20912,13.95668 265.29855,13.40578 C265.8693,14.8128 266.94131,18.21247 266.94131,18.21247 L268.05055,17.86506 C268.05055,17.86506 266.9835,14.48772 266.41523,13.08318 C268.18703,12.53725 269.88687,11.81017 271.50978,10.9193 C272.80761,12.52236 273.93421,14.27183 274.8623,16.13048 C274.02603,16.52008 272.49494,17.06105 272.49494,17.06105 C273.7208,17.19009 274.65385,17.48291 274.65385,17.48291 C274.65385,17.48291 275.07819,17.29679 275.3586,17.1752 C275.46531,17.4159 275.6812,17.91469 275.6812,17.91469 L277.20237,18.59214 L277.03114,18.16532 C277.03114,18.16532 276.52243,16.95931 276.40084,16.67641 C278.01878,15.88233 279.60695,14.96665 281.1306,13.94179 C284.02653,18.36384 285.55266,23.50062 285.55266,28.80602 C285.55266,37.62532 281.33657,45.47432 274.81515,50.44732 Z M255.38491,1.78734 C253.71981,2.51938 252.10931,3.40032 250.60055,4.42022 C250.14147,4.01822 249.72954,3.58643 249.34987,3.13976 C251.28793,2.45983 253.31781,2.00819 255.38491,1.78734 Z M253.75207,6.39303 C252.9828,6.06795 252.2582,5.65602 251.57578,5.1746 C253.1044,4.15966 254.74964,3.2961 256.47181,2.59383 C255.49657,3.80729 254.58586,5.07534 253.75207,6.39303 Z M257.76219,2.83205 C257.76219,3.71795 257.76219,6.93648 257.76219,7.30622 C256.77703,7.25907 255.81173,7.08289 254.86627,6.79503 C255.74224,5.4302 256.71003,4.10755 257.76219,2.83205 Z M258.93843,8.4775 C260.15437,8.42538 261.35294,8.20205 262.51181,7.81493 C263.37041,9.25917 264.14713,10.77041 264.82954,12.32632 C262.90389,12.82014 260.92364,13.09807 258.93843,13.14274 C258.93843,12.76307 258.93843,8.81498 258.93843,8.4775 Z M258.93843,2.77994 C259.97819,4.04303 260.96086,5.38057 261.86662,6.79503 C260.91123,7.08537 259.93104,7.26155 258.93843,7.3087 C258.93843,6.94144 258.93843,3.66832 258.93843,2.77994 Z M265.17199,5.1746 C264.48461,5.6585 263.75753,6.07043 262.99074,6.39303 C262.16936,5.09271 261.2512,3.8197 260.25611,2.5839 C261.9758,3.28865 263.62601,4.1547 265.17199,5.1746 Z M267.38798,3.14969 C267.00335,3.60629 266.57901,4.03062 266.13978,4.42767 C264.6335,3.40528 263.04037,2.52435 261.38024,1.79726 C263.44734,2.02308 265.45488,2.46975 267.38798,3.14969 Z M270.74299,10.01603 C269.21686,10.8399 267.61132,11.50742 265.96608,12.01117 C265.27622,10.43293 264.48213,8.87702 263.60368,7.39059 C264.50943,6.98611 265.38292,6.47988 266.18445,5.87687 C267.84954,7.08537 269.38064,8.47998 270.74299,10.01603 Z M268.54189,3.58147 C270.80999,4.49467 272.94161,5.72302 274.89456,7.22681 C273.91932,8.02834 272.86964,8.77031 271.76785,9.43288 C270.37821,7.83478 268.81485,6.3831 267.10509,5.11256 C267.62621,4.64108 268.10266,4.12989 268.54189,3.58147 Z M280.47796,12.9864 C279.02131,13.95916 277.48526,14.84754 275.90205,15.62673 C274.97645,13.75071 273.83495,11.97395 272.51727,10.33119 C273.68606,9.62395 274.79282,8.82987 275.82264,7.9663 C277.57956,9.44032 279.14539,11.13023 280.47796,12.9864 Z M258.35279,0.45725 C242.71678,0.45725 230.00896,13.17252 230.00896,28.80602 C230.00896,44.43712 242.71678,57.15732 258.35279,57.15732 C273.98384,57.15732 286.70656,44.43712 286.70656,28.80602 C286.70656,13.17252 273.98384,0.45725 258.35279,0.45725 Z" id="path94"></path>
            <path d="M227.44059,7.99112 L226.99392,8.38072 C225.33379,9.85722 221.53459,13.74078 222.12023,18.00651 C222.12271,18.01643 222.1773,18.30429 222.1773,18.30429 C222.1773,18.31173 222.36093,19.148 222.36093,19.148 L222.89446,18.66162 C225.2246,16.53249 226.96166,12.92685 227.6813,8.76535 L227.87982,7.59408 L227.44059,7.99112" id="path98"></path>
            <path d="M219.71812,15.35625 L219.53201,15.86992 C219.26897,16.58212 218.79003,18.07847 218.53196,20.07112 C218.17462,22.88272 218.24906,26.85802 220.69832,29.83592 C220.69584,29.83092 220.97377,30.18822 220.97377,30.18822 L221.24921,30.54562 L221.61151,28.73652 C222.01848,25.54532 221.48992,18.8527 220.3112,15.85752 L219.91168,14.84258 L219.71812,15.35625" id="path102"></path>
            <path d="M216.90409,26.87042 L216.87431,27.39402 C216.6609,30.26512 216.81227,37.33252 222.53961,41.08452 C222.54209,41.08452 223.2121,41.52622 223.2121,41.52622 L223.1848,40.71722 C223.08554,38.03722 219.95883,30.02692 217.60636,27.15832 L216.93883,26.34932 L216.90409,26.87042" id="path106"></path>
            <path d="M217.88677,39.52622 L217.99099,40.00762 C218.82478,44.06982 222.68353,50.64832 228.62924,52.56162 L229.43821,52.82712 L229.14787,52.02062 C228.03616,48.98322 222.30634,41.90102 218.61882,39.56842 L217.78999,39.04232 L217.88677,39.52622" id="path110"></path>
            <path d="M229.84518,14.11301 L229.36873,14.3959 C224.94419,17.10075 222.86717,20.37387 223.02598,24.41622 C223.02598,24.41872 223.06321,25.33942 223.06321,25.33942 L223.71336,24.80092 C226.10802,22.82062 229.10569,17.74843 229.98911,14.87483 C229.99159,14.87483 230.30922,13.82764 230.30922,13.82764 L229.84518,14.11301" id="path114"></path>
            <path d="M227.23463,22.95962 L226.89963,23.27482 C225.76806,24.35922 222.09542,28.26762 222.41553,33.09912 C222.4602,33.83612 222.63391,34.63022 222.92176,35.46392 L223.17984,36.23322 L223.65381,35.57312 C225.41072,33.10402 227.73093,26.59252 227.60934,23.56262 L227.5746,22.64442 L227.23463,22.95962" id="path118"></path>
            <path d="M227.42322,31.34462 L227.17755,31.71192 C225.32634,34.46142 224.38337,37.28292 224.44292,39.87852 C224.49752,41.80172 225.10301,43.64302 226.26435,45.35032 L226.65395,45.92352 L226.97655,45.31552 C227.77559,43.81422 228.41334,38.94052 228.31656,35.08182 C228.28927,33.72192 228.14782,32.59532 227.922,31.82852 L227.67882,30.97492 L227.42322,31.34462" id="path122"></path>
            <path d="M229.57221,40.31032 L229.45806,40.69252 C228.89972,42.47912 228.63916,44.22362 228.68631,45.87632 C228.79053,49.62342 230.44818,52.55412 233.62204,54.58642 L234.15805,54.92392 L234.27716,54.20432 C234.27716,54.19192 234.31934,53.62612 234.31934,53.62612 C234.23249,50.58382 231.96191,42.90842 230.18266,40.56842 L229.70125,39.92072 L229.57221,40.31032" id="path126"></path>
            <path d="M223.3312,52.19422 L223.56198,52.57892 C225.94424,56.57662 229.99655,61.73572 237.5602,60.41302 L238.20043,60.30632 L237.83813,59.77032 C236.42615,57.66602 227.23462,52.48212 223.98632,51.95352 L223.09546,51.80712 L223.3312,52.19422 Z" id="path130"></path>
            <path d="M234.53027,62.34372 L233.34163,62.66882 L234.48312,63.13782 C239.29726,65.10812 245.32981,65.68882 248.82875,64.51012 C250.14147,64.06342 250.94548,63.34622 251.91823,62.39082 C258.07486,63.02862 263.84934,68.15292 267.21427,72.33432 L267.38798,72.54272 L267.65102,72.45592 C268.02325,72.32932 268.61137,71.87772 268.85207,71.61962 L269.09774,71.35902 L268.87937,71.07862 C265.37299,66.49282 259.88389,63.65392 259.63573,63.53732 C254.69752,61.12032 245.97253,59.24682 234.53027,62.34372" id="path134"></path>
            <path d="M234.78339,49.54402 L234.85287,49.95592 C235.57251,54.48222 237.41379,60.43542 245.0767,59.77782 L245.56556,59.73562 L245.44645,59.25912 C244.92285,57.19702 237.90513,51.20662 235.45836,49.51672 L234.72383,49.13702 L234.78339,49.54402" id="path138"></path>
            <path d="M288.94488,7.59408 L289.13844,8.76535 C289.85311,12.92685 291.59762,16.53249 293.92279,18.66163 L294.45136,19.148 C294.45136,19.148 294.6474,18.31173 294.6474,18.30429 C294.6474,18.30429 294.69951,18.01643 294.70199,18.00651 C295.28763,13.74079 291.48347,9.85722 289.8283,8.38072 L289.38659,7.99112 L288.94488,7.59408" id="path142"></path>
            <path d="M296.91302,14.84257 L296.5135,15.85751 C295.33726,18.85269 294.80125,25.54532 295.2107,28.73652 L295.57052,30.54562 L295.85341,30.18822 C295.85341,30.18822 296.12886,29.83092 296.12638,29.83582 C298.56323,26.85802 298.65008,22.88272 298.28778,20.07112 C298.03466,18.07846 297.55325,16.58211 297.29517,15.86992 L297.09913,15.35624 L296.91302,14.84257" id="path146"></path>
            <path d="M299.03471,39.04232 L298.20588,39.56842 C294.52084,41.90102 288.78606,48.98322 287.67434,52.02062 L287.37408,52.82712 L288.19298,52.56162 C294.14117,50.64832 298.00488,44.06982 298.83123,40.00762 L298.93545,39.52622 L299.03471,39.04232" id="path162"></path>
            <path d="M286.73634,13.68867 L287.03908,14.74331 C287.86295,17.64172 290.76135,22.76352 293.11631,24.79342 L293.75654,25.33942 L293.80865,24.41872 C294.04688,20.38379 292.03933,17.06601 287.66691,14.27679 L287.20286,13.98397 L286.73634,13.68867" id="path166"></path>
            <path d="M289.25011,22.64442 L289.20792,23.56262 C289.09377,26.59252 291.41399,33.10402 293.17338,35.57312 L293.64487,36.23322 L293.90543,35.46392 C294.1908,34.63012 294.36203,33.83602 294.40669,33.09902 C294.72433,28.26752 291.04921,24.35912 289.91764,23.27472 L289.59008,22.95962 L289.25011,22.64442" id="path170"></path>
            <path d="M289.14589,30.97492 L288.90022,31.82852 C288.67688,32.59532 288.53544,33.72192 288.50566,35.08182 C288.41384,38.94062 289.04911,43.81422 289.84816,45.31562 L290.16827,45.92352 L290.55787,45.35032 C291.7217,43.64302 292.32471,41.80172 292.37682,39.87862 C292.44382,37.28292 291.4934,34.46142 289.64467,31.71192 L289.39652,31.34462 L289.14589,30.97492" id="path174"></path>
            <path d="M287.12345,39.92072 L286.62963,40.56842 C284.86279,42.90842 282.59221,50.58382 282.50039,53.62612 C282.50039,53.62612 282.54754,54.19192 282.54754,54.20432 L282.66417,54.92392 L283.1977,54.58642 C286.37155,52.55412 288.0292,49.62342 288.14087,45.87632 C288.18057,44.22362 287.92002,42.47912 287.36168,40.69252 L287.24256,40.31032 L287.12345,39.92072" id="path178"></path>
            <path d="M293.71931,51.80712 L292.8359,51.95352 C289.59008,52.48212 280.39359,57.66602 278.98409,59.77032 L278.62427,60.30632 L279.25954,60.41302 C286.82815,61.73572 290.87302,56.57662 293.26272,52.57892 L293.4935,52.19422 L293.71931,51.80712 Z" id="path182"></path>
            <path d="M257.18897,63.53732 C256.9433,63.65392 251.45171,66.49282 247.94285,71.07862 L247.72448,71.35902 L247.97263,71.61962 C248.20838,71.87772 248.79898,72.32932 249.1712,72.45592 L249.4268,72.54272 L249.61291,72.33432 C252.97288,68.15292 258.7424,63.02862 264.90151,62.39082 C265.87923,63.34622 266.67083,64.06342 267.98851,64.51012 C271.49241,65.68882 277.52249,65.10812 282.3391,63.13782 L283.47812,62.66882 L282.28947,62.34372 C270.8497,59.24682 262.12718,61.12032 257.18897,63.53732" id="path186"></path>
            <path d="M282.09839,49.13712 L281.36883,49.51682 C278.91709,51.20672 271.89689,57.19712 271.37577,59.25922 L271.25666,59.73562 L271.748,59.77782 C279.40595,60.43542 281.24971,54.48232 281.96935,49.95602 L282.03635,49.54412 L282.09839,49.13712" id="path190"></path>
            <path d="M97.364658,64.41572 L89.322076,64.41572 L89.322076,21.88762 L97.364658,21.88762 L97.364658,64.41572 Z M88.550325,3.24647 L98.126235,3.24647 L98.126235,11.97146 L88.550325,11.97146 L88.550325,3.24647 Z" id="path192"></path>
            <path d="M28.557274,21.92232 L36.602338,21.92232 L36.602338,64.45542 L28.723535,64.45542 L28.723535,58.18462 L28.557274,58.18462 C25.331307,63.52242 19.909202,65.72102 13.98335,65.72102 C5.0846454,65.72102 2.58484e-05,58.94652 2.58484e-05,50.39022 L2.58484e-05,21.92232 L8.0550161,21.92232 L8.0550161,47.08732 C8.0550161,54.45742 9.7498892,59.87952 17.457468,59.87952 C20.755398,59.87952 25.249418,58.18462 26.944291,53.78002 C28.465458,49.79712 28.557274,44.79442 28.557274,43.78442 L28.557274,21.92232" id="path196"></path>
            <path d="M52.675096,28.19312 L52.843839,28.19312 C55.551169,22.85542 61.484466,20.65672 65.720408,20.65672 C68.680853,20.65672 81.817981,21.41862 81.817981,35.05702 L81.817981,64.45542 L73.770435,64.45542 L73.770435,37.68492 C73.770435,30.65232 70.807509,26.84072 64.028017,26.84072 C64.028017,26.84072 59.62085,26.58762 56.233585,29.97232 C55.049904,31.15852 52.843839,33.02212 52.843839,41.32532 L52.843839,64.45542 L44.798775,64.45542 L44.798775,21.92232 L52.675096,21.92232 L52.675096,28.19312" id="path200"></path>
            <path d="M131.07105,35.56322 C130.64175,30.25772 128.12549,26.56522 122.3932,26.56522 C114.74518,26.56522 111.79218,33.20082 111.79218,43.14672 C111.79218,53.07522 114.74518,59.72322 122.3932,59.72322 C127.69619,59.72322 130.97675,56.28382 131.39365,50.21652 L139.39901,50.21652 C138.71907,59.72322 131.66165,65.52992 122.31131,65.52992 C108.76473,65.52992 103.37489,55.94142 103.37489,43.47922 C103.37489,31.09152 109.601,20.74612 122.99373,20.74612 C131.91476,20.74612 138.64215,26.38902 139.05159,35.56322 L131.07105,35.56322" id="path204"></path>
            <path d="M172.79768,39.10432 C172.9689,32.03702 169.76527,26.56522 162.01799,26.56522 C155.36505,26.56522 151.42193,32.18582 151.42193,39.10432 L172.79768,39.10432 Z M151.42193,44.65542 C150.83133,52.06282 153.86126,59.72322 162.01799,59.72322 C168.2441,59.72322 171.37081,57.29382 172.27904,51.13222 L180.71619,51.13222 C179.44565,60.74062 172.02841,65.52992 161.94354,65.52992 C148.38704,65.52992 142.98975,55.94142 142.98975,43.47922 C142.98975,31.09152 149.23324,20.74612 162.61355,20.74612 C175.23701,21.01412 181.21249,28.99712 181.21249,40.70492 L181.21249,44.65542 L151.42193,44.65542 Z" id="path208"></path>
            <path d="M190.26257,64.26682 L190.26257,27.57522 L182.9967,27.57522 L182.9967,21.99922 L190.26257,21.99922 L190.26257,12.92432 C190.53057,3.66084 197.50859,1.22399 203.48903,1.22399 C205.42213,1.22399 207.2783,1.72277 209.21636,2.05778 L209.21636,8.70823 C207.86146,8.63379 206.52144,8.45015 205.16902,8.45015 C200.63033,8.45015 198.01482,9.64128 198.26297,14.26186 L198.26297,21.99922 L208.03516,21.99922 L208.03516,27.57522 L198.26297,27.57522 L198.26297,64.26682 L190.26257,64.26682" id="path212"></path>
        </g>
    </g>
</svg>